<mxfile host="Electron" modified="2023-06-29T18:49:32.808Z" agent="Mozilla/5.0 (Windows NT 10.0; Win64; x64) AppleWebKit/537.36 (KHTML, like Gecko) draw.io/21.5.0 Chrome/112.0.5615.204 Electron/24.5.1 Safari/537.36" etag="BVDW8LIId7RAeJhh0_bP" version="21.5.0" type="device" pages="2">
  <diagram name="Simplified UML" id="Lt9V92rxW6GRgsravggN">
    <mxGraphModel dx="1086" dy="940" grid="1" gridSize="10" guides="1" tooltips="1" connect="1" arrows="1" fold="1" page="0" pageScale="1" pageWidth="850" pageHeight="1100" math="0" shadow="0">
      <root>
        <mxCell id="0" />
        <mxCell id="1" parent="0" />
        <mxCell id="ayX3Q587YIUIxVzyPdZm-2" value="Path" style="rounded=1;whiteSpace=wrap;html=1;fillColor=#7EA6E0;" parent="1" vertex="1">
          <mxGeometry x="1060" y="280" width="60" height="30" as="geometry" />
        </mxCell>
        <mxCell id="rnpLa5qPzDcnM3WUcCY0-19" style="edgeStyle=orthogonalEdgeStyle;rounded=0;orthogonalLoop=1;jettySize=auto;html=1;exitX=0.5;exitY=1;exitDx=0;exitDy=0;entryX=0.5;entryY=0;entryDx=0;entryDy=0;endArrow=block;endFill=1;" parent="1" source="ayX3Q587YIUIxVzyPdZm-3" target="ayX3Q587YIUIxVzyPdZm-2" edge="1">
          <mxGeometry relative="1" as="geometry" />
        </mxCell>
        <mxCell id="rnpLa5qPzDcnM3WUcCY0-41" style="edgeStyle=orthogonalEdgeStyle;rounded=0;orthogonalLoop=1;jettySize=auto;html=1;exitX=0.5;exitY=0;exitDx=0;exitDy=0;entryX=0.5;entryY=1;entryDx=0;entryDy=0;dashed=1;dashPattern=8 8;endArrow=open;endFill=0;" parent="1" source="ayX3Q587YIUIxVzyPdZm-3" target="rnpLa5qPzDcnM3WUcCY0-6" edge="1">
          <mxGeometry relative="1" as="geometry" />
        </mxCell>
        <mxCell id="IR4mewhrY6wyWwk8Pv0--1" style="edgeStyle=orthogonalEdgeStyle;rounded=0;orthogonalLoop=1;jettySize=auto;html=1;exitX=0.75;exitY=1;exitDx=0;exitDy=0;entryX=1;entryY=0.25;entryDx=0;entryDy=0;endArrow=block;endFill=1;" parent="1" source="ayX3Q587YIUIxVzyPdZm-3" target="ayX3Q587YIUIxVzyPdZm-4" edge="1">
          <mxGeometry relative="1" as="geometry">
            <Array as="points">
              <mxPoint x="1135" y="240" />
              <mxPoint x="1135" y="290" />
              <mxPoint x="1170" y="290" />
              <mxPoint x="1170" y="350" />
            </Array>
          </mxGeometry>
        </mxCell>
        <mxCell id="ayX3Q587YIUIxVzyPdZm-3" value="Checkpoint &lt;br&gt;Manager" style="rounded=1;whiteSpace=wrap;html=1;fillColor=#FF9999;fontColor=#1A1A1A;" parent="1" vertex="1">
          <mxGeometry x="1030" y="180" width="120" height="60" as="geometry" />
        </mxCell>
        <mxCell id="rnpLa5qPzDcnM3WUcCY0-38" style="edgeStyle=orthogonalEdgeStyle;rounded=0;orthogonalLoop=1;jettySize=auto;html=1;exitX=1;exitY=0.5;exitDx=0;exitDy=0;endArrow=block;endFill=1;" parent="1" source="ayX3Q587YIUIxVzyPdZm-4" target="rnpLa5qPzDcnM3WUcCY0-37" edge="1">
          <mxGeometry relative="1" as="geometry" />
        </mxCell>
        <mxCell id="IR4mewhrY6wyWwk8Pv0--2" style="edgeStyle=orthogonalEdgeStyle;rounded=0;orthogonalLoop=1;jettySize=auto;html=1;exitX=0.5;exitY=0;exitDx=0;exitDy=0;entryX=0.5;entryY=1;entryDx=0;entryDy=0;endArrow=open;endFill=0;dashed=1;" parent="1" source="ayX3Q587YIUIxVzyPdZm-4" target="ayX3Q587YIUIxVzyPdZm-2" edge="1">
          <mxGeometry relative="1" as="geometry" />
        </mxCell>
        <mxCell id="ayX3Q587YIUIxVzyPdZm-4" value="Checkpoints[]" style="rounded=1;whiteSpace=wrap;html=1;fillColor=#a0522d;fontColor=#ffffff;strokeColor=#6D1F00;" parent="1" vertex="1">
          <mxGeometry x="1045" y="340" width="90" height="40" as="geometry" />
        </mxCell>
        <mxCell id="ayX3Q587YIUIxVzyPdZm-6" value="Entities" style="rounded=1;whiteSpace=wrap;html=1;fillColor=#FF9999;fontColor=#1A1A1A;" parent="1" vertex="1">
          <mxGeometry x="1030" y="470" width="120" height="60" as="geometry" />
        </mxCell>
        <mxCell id="rnpLa5qPzDcnM3WUcCY0-46" style="edgeStyle=orthogonalEdgeStyle;rounded=0;orthogonalLoop=1;jettySize=auto;html=1;exitX=0.5;exitY=1;exitDx=0;exitDy=0;entryX=0;entryY=0.5;entryDx=0;entryDy=0;endArrow=block;endFill=1;" parent="1" source="rnpLa5qPzDcnM3WUcCY0-1" target="rnpLa5qPzDcnM3WUcCY0-3" edge="1">
          <mxGeometry relative="1" as="geometry" />
        </mxCell>
        <mxCell id="rnpLa5qPzDcnM3WUcCY0-47" style="edgeStyle=orthogonalEdgeStyle;rounded=0;orthogonalLoop=1;jettySize=auto;html=1;exitX=0.5;exitY=0;exitDx=0;exitDy=0;entryX=0;entryY=0.5;entryDx=0;entryDy=0;endArrow=block;endFill=1;" parent="1" source="rnpLa5qPzDcnM3WUcCY0-1" target="rnpLa5qPzDcnM3WUcCY0-2" edge="1">
          <mxGeometry relative="1" as="geometry" />
        </mxCell>
        <mxCell id="rnpLa5qPzDcnM3WUcCY0-48" style="edgeStyle=orthogonalEdgeStyle;rounded=0;orthogonalLoop=1;jettySize=auto;html=1;exitX=0.5;exitY=0;exitDx=0;exitDy=0;entryX=0;entryY=0.5;entryDx=0;entryDy=0;endArrow=block;endFill=1;" parent="1" source="rnpLa5qPzDcnM3WUcCY0-1" target="rnpLa5qPzDcnM3WUcCY0-45" edge="1">
          <mxGeometry relative="1" as="geometry" />
        </mxCell>
        <mxCell id="rnpLa5qPzDcnM3WUcCY0-68" style="edgeStyle=orthogonalEdgeStyle;rounded=0;orthogonalLoop=1;jettySize=auto;html=1;exitX=0;exitY=0.5;exitDx=0;exitDy=0;entryX=1;entryY=0.5;entryDx=0;entryDy=0;endArrow=open;endFill=0;dashed=1;" parent="1" source="rnpLa5qPzDcnM3WUcCY0-1" target="ayX3Q587YIUIxVzyPdZm-3" edge="1">
          <mxGeometry relative="1" as="geometry" />
        </mxCell>
        <mxCell id="rnpLa5qPzDcnM3WUcCY0-1" value="Time Manager" style="rounded=1;whiteSpace=wrap;html=1;fillColor=#FF9999;fontColor=#1A1A1A;" parent="1" vertex="1">
          <mxGeometry x="1210" y="185" width="100" height="50" as="geometry" />
        </mxCell>
        <mxCell id="rnpLa5qPzDcnM3WUcCY0-2" value="Current Time" style="rounded=1;whiteSpace=wrap;html=1;fillColor=#a0522d;fontColor=#ffffff;strokeColor=#6D1F00;" parent="1" vertex="1">
          <mxGeometry x="1320" y="130" width="90" height="40" as="geometry" />
        </mxCell>
        <mxCell id="rnpLa5qPzDcnM3WUcCY0-58" style="edgeStyle=orthogonalEdgeStyle;rounded=0;orthogonalLoop=1;jettySize=auto;html=1;exitX=1;exitY=0.5;exitDx=0;exitDy=0;entryX=0.5;entryY=0;entryDx=0;entryDy=0;dashed=1;endArrow=none;endFill=0;startArrow=open;startFill=0;" parent="1" source="rnpLa5qPzDcnM3WUcCY0-3" target="rnpLa5qPzDcnM3WUcCY0-6" edge="1">
          <mxGeometry relative="1" as="geometry">
            <Array as="points">
              <mxPoint x="1440" y="260" />
              <mxPoint x="1440" y="40" />
              <mxPoint x="1090" y="40" />
            </Array>
          </mxGeometry>
        </mxCell>
        <mxCell id="rnpLa5qPzDcnM3WUcCY0-3" value="Countdown" style="rounded=1;whiteSpace=wrap;html=1;fillColor=#a0522d;fontColor=#ffffff;strokeColor=#6D1F00;" parent="1" vertex="1">
          <mxGeometry x="1320" y="240" width="90" height="40" as="geometry" />
        </mxCell>
        <mxCell id="rnpLa5qPzDcnM3WUcCY0-6" value="Summary UI" style="rounded=1;whiteSpace=wrap;html=1;fillColor=#FF9999;fontColor=#1A1A1A;" parent="1" vertex="1">
          <mxGeometry x="1030" y="60" width="120" height="60" as="geometry" />
        </mxCell>
        <mxCell id="rnpLa5qPzDcnM3WUcCY0-8" style="edgeStyle=orthogonalEdgeStyle;rounded=0;orthogonalLoop=1;jettySize=auto;html=1;exitX=0.5;exitY=0;exitDx=0;exitDy=0;entryX=0.5;entryY=1;entryDx=0;entryDy=0;endArrow=block;endFill=0;" parent="1" source="rnpLa5qPzDcnM3WUcCY0-7" target="ayX3Q587YIUIxVzyPdZm-6" edge="1">
          <mxGeometry relative="1" as="geometry">
            <Array as="points">
              <mxPoint x="1050" y="550" />
              <mxPoint x="1100" y="550" />
            </Array>
          </mxGeometry>
        </mxCell>
        <mxCell id="rnpLa5qPzDcnM3WUcCY0-15" style="edgeStyle=orthogonalEdgeStyle;rounded=0;orthogonalLoop=1;jettySize=auto;html=1;exitX=0;exitY=0.5;exitDx=0;exitDy=0;entryX=1;entryY=0.5;entryDx=0;entryDy=0;endArrow=block;endFill=1;" parent="1" source="rnpLa5qPzDcnM3WUcCY0-7" target="rnpLa5qPzDcnM3WUcCY0-14" edge="1">
          <mxGeometry relative="1" as="geometry" />
        </mxCell>
        <mxCell id="rnpLa5qPzDcnM3WUcCY0-33" style="edgeStyle=orthogonalEdgeStyle;rounded=0;orthogonalLoop=1;jettySize=auto;html=1;exitX=0.5;exitY=1;exitDx=0;exitDy=0;entryX=0.5;entryY=0;entryDx=0;entryDy=0;endArrow=block;endFill=1;" parent="1" source="rnpLa5qPzDcnM3WUcCY0-7" target="rnpLa5qPzDcnM3WUcCY0-32" edge="1">
          <mxGeometry relative="1" as="geometry" />
        </mxCell>
        <mxCell id="rnpLa5qPzDcnM3WUcCY0-67" style="edgeStyle=orthogonalEdgeStyle;rounded=0;orthogonalLoop=1;jettySize=auto;html=1;exitX=0.25;exitY=0;exitDx=0;exitDy=0;entryX=1;entryY=0.5;entryDx=0;entryDy=0;endArrow=block;endFill=1;" parent="1" source="rnpLa5qPzDcnM3WUcCY0-7" target="rnpLa5qPzDcnM3WUcCY0-66" edge="1">
          <mxGeometry relative="1" as="geometry" />
        </mxCell>
        <mxCell id="rnpLa5qPzDcnM3WUcCY0-7" value="Enemy" style="rounded=1;whiteSpace=wrap;html=1;fillColor=#7EA6E0;" parent="1" vertex="1">
          <mxGeometry x="1000" y="560" width="80" height="40" as="geometry" />
        </mxCell>
        <mxCell id="rnpLa5qPzDcnM3WUcCY0-11" style="edgeStyle=orthogonalEdgeStyle;rounded=0;orthogonalLoop=1;jettySize=auto;html=1;exitX=0.5;exitY=0;exitDx=0;exitDy=0;entryX=0.5;entryY=1;entryDx=0;entryDy=0;endArrow=block;endFill=0;" parent="1" source="rnpLa5qPzDcnM3WUcCY0-9" target="ayX3Q587YIUIxVzyPdZm-6" edge="1">
          <mxGeometry relative="1" as="geometry">
            <Array as="points">
              <mxPoint x="1140" y="550" />
              <mxPoint x="1090" y="550" />
            </Array>
          </mxGeometry>
        </mxCell>
        <mxCell id="rnpLa5qPzDcnM3WUcCY0-9" value="Prop" style="rounded=1;whiteSpace=wrap;html=1;fillColor=#7EA6E0;" parent="1" vertex="1">
          <mxGeometry x="1100" y="560" width="80" height="40" as="geometry" />
        </mxCell>
        <mxCell id="rnpLa5qPzDcnM3WUcCY0-12" value="&lt;i&gt;IDamageable&lt;/i&gt;" style="rounded=1;whiteSpace=wrap;html=1;fillColor=#CCFF99;fontColor=#1A1A1A;" parent="1" vertex="1">
          <mxGeometry x="1330" y="570" width="100" height="50" as="geometry" />
        </mxCell>
        <mxCell id="rnpLa5qPzDcnM3WUcCY0-14" value="Shooting&lt;br&gt;Component" style="rounded=1;whiteSpace=wrap;html=1;fillColor=#7EA6E0;" parent="1" vertex="1">
          <mxGeometry x="900" y="560" width="80" height="40" as="geometry" />
        </mxCell>
        <mxCell id="rnpLa5qPzDcnM3WUcCY0-24" style="edgeStyle=orthogonalEdgeStyle;rounded=0;orthogonalLoop=1;jettySize=auto;html=1;exitX=0;exitY=0.5;exitDx=0;exitDy=0;entryX=1;entryY=0.5;entryDx=0;entryDy=0;endArrow=block;endFill=1;" parent="1" source="rnpLa5qPzDcnM3WUcCY0-21" target="rnpLa5qPzDcnM3WUcCY0-22" edge="1">
          <mxGeometry relative="1" as="geometry" />
        </mxCell>
        <mxCell id="rnpLa5qPzDcnM3WUcCY0-29" style="edgeStyle=orthogonalEdgeStyle;rounded=0;orthogonalLoop=1;jettySize=auto;html=1;exitX=1;exitY=0.5;exitDx=0;exitDy=0;entryX=0;entryY=0.5;entryDx=0;entryDy=0;endArrow=block;endFill=1;" parent="1" source="rnpLa5qPzDcnM3WUcCY0-21" target="rnpLa5qPzDcnM3WUcCY0-28" edge="1">
          <mxGeometry relative="1" as="geometry" />
        </mxCell>
        <mxCell id="rnpLa5qPzDcnM3WUcCY0-40" style="edgeStyle=orthogonalEdgeStyle;rounded=0;orthogonalLoop=1;jettySize=auto;html=1;exitX=0.5;exitY=0;exitDx=0;exitDy=0;entryX=0;entryY=0.5;entryDx=0;entryDy=0;dashed=1;endArrow=open;endFill=0;" parent="1" source="rnpLa5qPzDcnM3WUcCY0-21" target="ayX3Q587YIUIxVzyPdZm-2" edge="1">
          <mxGeometry relative="1" as="geometry">
            <Array as="points">
              <mxPoint x="1090" y="680" />
              <mxPoint x="880" y="680" />
              <mxPoint x="880" y="295" />
            </Array>
          </mxGeometry>
        </mxCell>
        <mxCell id="rnpLa5qPzDcnM3WUcCY0-44" style="edgeStyle=orthogonalEdgeStyle;rounded=0;orthogonalLoop=1;jettySize=auto;html=1;exitX=0.5;exitY=0;exitDx=0;exitDy=0;entryX=0;entryY=0.5;entryDx=0;entryDy=0;dashed=1;endArrow=block;endFill=0;" parent="1" source="rnpLa5qPzDcnM3WUcCY0-21" target="rnpLa5qPzDcnM3WUcCY0-12" edge="1">
          <mxGeometry relative="1" as="geometry">
            <Array as="points">
              <mxPoint x="1090" y="680" />
              <mxPoint x="1240" y="680" />
              <mxPoint x="1240" y="595" />
            </Array>
          </mxGeometry>
        </mxCell>
        <mxCell id="rnpLa5qPzDcnM3WUcCY0-21" value="Player" style="rounded=1;whiteSpace=wrap;html=1;fillColor=#FF9999;fontColor=#1A1A1A;" parent="1" vertex="1">
          <mxGeometry x="1030" y="700" width="120" height="60" as="geometry" />
        </mxCell>
        <mxCell id="rnpLa5qPzDcnM3WUcCY0-49" style="edgeStyle=orthogonalEdgeStyle;rounded=0;orthogonalLoop=1;jettySize=auto;html=1;exitX=0;exitY=0.5;exitDx=0;exitDy=0;entryX=0;entryY=0.5;entryDx=0;entryDy=0;dashed=1;endArrow=open;endFill=0;" parent="1" source="rnpLa5qPzDcnM3WUcCY0-22" target="rnpLa5qPzDcnM3WUcCY0-6" edge="1">
          <mxGeometry relative="1" as="geometry">
            <Array as="points">
              <mxPoint x="870" y="730" />
              <mxPoint x="870" y="90" />
            </Array>
          </mxGeometry>
        </mxCell>
        <mxCell id="rnpLa5qPzDcnM3WUcCY0-22" value="Shooting&lt;br&gt;Component" style="rounded=1;whiteSpace=wrap;html=1;fillColor=#7EA6E0;" parent="1" vertex="1">
          <mxGeometry x="900" y="710" width="80" height="40" as="geometry" />
        </mxCell>
        <mxCell id="rnpLa5qPzDcnM3WUcCY0-30" style="edgeStyle=orthogonalEdgeStyle;rounded=0;orthogonalLoop=1;jettySize=auto;html=1;exitX=0;exitY=0.5;exitDx=0;exitDy=0;entryX=0.5;entryY=1;entryDx=0;entryDy=0;dashed=1;endArrow=open;endFill=0;" parent="1" source="rnpLa5qPzDcnM3WUcCY0-26" target="rnpLa5qPzDcnM3WUcCY0-22" edge="1">
          <mxGeometry relative="1" as="geometry" />
        </mxCell>
        <mxCell id="rnpLa5qPzDcnM3WUcCY0-57" style="edgeStyle=orthogonalEdgeStyle;rounded=0;orthogonalLoop=1;jettySize=auto;html=1;exitX=0.5;exitY=1;exitDx=0;exitDy=0;entryX=0.5;entryY=0;entryDx=0;entryDy=0;endArrow=open;endFill=0;dashed=1;" parent="1" source="rnpLa5qPzDcnM3WUcCY0-26" target="rnpLa5qPzDcnM3WUcCY0-42" edge="1">
          <mxGeometry relative="1" as="geometry" />
        </mxCell>
        <mxCell id="rnpLa5qPzDcnM3WUcCY0-26" value="Input &lt;br&gt;Manager" style="whiteSpace=wrap;html=1;rounded=1;fillColor=#e3c800;fontColor=#000000;strokeColor=#B09500;" parent="1" vertex="1">
          <mxGeometry x="1050" y="790" width="80" height="40" as="geometry" />
        </mxCell>
        <mxCell id="rnpLa5qPzDcnM3WUcCY0-50" style="edgeStyle=orthogonalEdgeStyle;rounded=0;orthogonalLoop=1;jettySize=auto;html=1;exitX=0.5;exitY=1;exitDx=0;exitDy=0;entryX=1;entryY=0.5;entryDx=0;entryDy=0;dashed=1;endArrow=open;endFill=0;" parent="1" source="rnpLa5qPzDcnM3WUcCY0-28" target="rnpLa5qPzDcnM3WUcCY0-26" edge="1">
          <mxGeometry relative="1" as="geometry" />
        </mxCell>
        <mxCell id="rnpLa5qPzDcnM3WUcCY0-28" value="Controller" style="rounded=1;whiteSpace=wrap;html=1;fillColor=#7EA6E0;" parent="1" vertex="1">
          <mxGeometry x="1200" y="710" width="80" height="40" as="geometry" />
        </mxCell>
        <mxCell id="rnpLa5qPzDcnM3WUcCY0-34" style="edgeStyle=orthogonalEdgeStyle;rounded=0;orthogonalLoop=1;jettySize=auto;html=1;exitX=0;exitY=0.5;exitDx=0;exitDy=0;entryX=0.5;entryY=1;entryDx=0;entryDy=0;dashed=1;endArrow=open;endFill=0;" parent="1" source="rnpLa5qPzDcnM3WUcCY0-32" target="rnpLa5qPzDcnM3WUcCY0-14" edge="1">
          <mxGeometry relative="1" as="geometry" />
        </mxCell>
        <mxCell id="rnpLa5qPzDcnM3WUcCY0-32" value="Controller" style="rounded=1;whiteSpace=wrap;html=1;fillColor=#7EA6E0;" parent="1" vertex="1">
          <mxGeometry x="1005" y="620" width="70" height="30" as="geometry" />
        </mxCell>
        <mxCell id="rnpLa5qPzDcnM3WUcCY0-39" style="edgeStyle=orthogonalEdgeStyle;rounded=0;orthogonalLoop=1;jettySize=auto;html=1;exitX=0.5;exitY=1;exitDx=0;exitDy=0;entryX=0.5;entryY=0;entryDx=0;entryDy=0;endArrow=block;endFill=1;" parent="1" source="rnpLa5qPzDcnM3WUcCY0-37" target="ayX3Q587YIUIxVzyPdZm-6" edge="1">
          <mxGeometry relative="1" as="geometry">
            <Array as="points">
              <mxPoint x="1260" y="420" />
              <mxPoint x="1090" y="420" />
            </Array>
          </mxGeometry>
        </mxCell>
        <mxCell id="IR4mewhrY6wyWwk8Pv0--4" value="" style="edgeStyle=orthogonalEdgeStyle;rounded=0;orthogonalLoop=1;jettySize=auto;html=1;endArrow=block;endFill=1;" parent="1" source="rnpLa5qPzDcnM3WUcCY0-37" target="IR4mewhrY6wyWwk8Pv0--3" edge="1">
          <mxGeometry relative="1" as="geometry" />
        </mxCell>
        <mxCell id="rnpLa5qPzDcnM3WUcCY0-37" value="Checkpoint" style="rounded=1;whiteSpace=wrap;html=1;fillColor=#FF9999;fontColor=#1A1A1A;" parent="1" vertex="1">
          <mxGeometry x="1200" y="330" width="120" height="60" as="geometry" />
        </mxCell>
        <mxCell id="rnpLa5qPzDcnM3WUcCY0-54" value="" style="edgeStyle=orthogonalEdgeStyle;rounded=0;orthogonalLoop=1;jettySize=auto;html=1;endArrow=block;endFill=1;" parent="1" source="rnpLa5qPzDcnM3WUcCY0-42" target="rnpLa5qPzDcnM3WUcCY0-53" edge="1">
          <mxGeometry relative="1" as="geometry" />
        </mxCell>
        <mxCell id="rnpLa5qPzDcnM3WUcCY0-56" style="edgeStyle=orthogonalEdgeStyle;rounded=0;orthogonalLoop=1;jettySize=auto;html=1;exitX=0.5;exitY=1;exitDx=0;exitDy=0;entryX=0.5;entryY=0;entryDx=0;entryDy=0;endArrow=block;endFill=1;" parent="1" source="rnpLa5qPzDcnM3WUcCY0-42" target="rnpLa5qPzDcnM3WUcCY0-55" edge="1">
          <mxGeometry relative="1" as="geometry" />
        </mxCell>
        <mxCell id="rnpLa5qPzDcnM3WUcCY0-42" value="Camera &lt;br&gt;Controller" style="rounded=1;whiteSpace=wrap;html=1;fillColor=#FF9999;fontColor=#1A1A1A;" parent="1" vertex="1">
          <mxGeometry x="1030" y="870" width="120" height="60" as="geometry" />
        </mxCell>
        <mxCell id="rnpLa5qPzDcnM3WUcCY0-45" value="Best Time" style="rounded=1;whiteSpace=wrap;html=1;fillColor=#a0522d;fontColor=#ffffff;strokeColor=#6D1F00;" parent="1" vertex="1">
          <mxGeometry x="1320" y="80" width="90" height="40" as="geometry" />
        </mxCell>
        <mxCell id="rnpLa5qPzDcnM3WUcCY0-53" value="Hidden&amp;nbsp;&lt;br&gt;Camera" style="rounded=1;whiteSpace=wrap;html=1;fillColor=#7EA6E0;" parent="1" vertex="1">
          <mxGeometry x="1000" y="990" width="80" height="40" as="geometry" />
        </mxCell>
        <mxCell id="rnpLa5qPzDcnM3WUcCY0-55" value="Shooting&lt;br&gt;Camera" style="rounded=1;whiteSpace=wrap;html=1;fillColor=#7EA6E0;" parent="1" vertex="1">
          <mxGeometry x="1100" y="990" width="80" height="40" as="geometry" />
        </mxCell>
        <mxCell id="rnpLa5qPzDcnM3WUcCY0-61" style="edgeStyle=orthogonalEdgeStyle;rounded=0;orthogonalLoop=1;jettySize=auto;html=1;exitX=1;exitY=0.5;exitDx=0;exitDy=0;dashed=1;endArrow=none;endFill=0;startArrow=open;startFill=0;" parent="1" source="rnpLa5qPzDcnM3WUcCY0-2" edge="1">
          <mxGeometry relative="1" as="geometry">
            <mxPoint x="1420" y="270" as="sourcePoint" />
            <mxPoint x="1440" y="150" as="targetPoint" />
          </mxGeometry>
        </mxCell>
        <mxCell id="rnpLa5qPzDcnM3WUcCY0-62" style="edgeStyle=orthogonalEdgeStyle;rounded=0;orthogonalLoop=1;jettySize=auto;html=1;exitX=1;exitY=0.5;exitDx=0;exitDy=0;dashed=1;endArrow=none;endFill=0;startArrow=open;startFill=0;" parent="1" source="rnpLa5qPzDcnM3WUcCY0-2" edge="1">
          <mxGeometry relative="1" as="geometry">
            <mxPoint x="1410" y="150" as="sourcePoint" />
            <mxPoint x="1425" y="150" as="targetPoint" />
          </mxGeometry>
        </mxCell>
        <mxCell id="rnpLa5qPzDcnM3WUcCY0-63" style="edgeStyle=orthogonalEdgeStyle;rounded=0;orthogonalLoop=1;jettySize=auto;html=1;exitX=1;exitY=0.5;exitDx=0;exitDy=0;dashed=1;endArrow=none;endFill=0;startArrow=open;startFill=0;" parent="1" edge="1">
          <mxGeometry relative="1" as="geometry">
            <mxPoint x="1410" y="99.9" as="sourcePoint" />
            <mxPoint x="1440" y="100" as="targetPoint" />
          </mxGeometry>
        </mxCell>
        <mxCell id="rnpLa5qPzDcnM3WUcCY0-64" style="edgeStyle=orthogonalEdgeStyle;rounded=0;orthogonalLoop=1;jettySize=auto;html=1;exitX=1;exitY=0.5;exitDx=0;exitDy=0;dashed=1;endArrow=none;endFill=0;" parent="1" source="ayX3Q587YIUIxVzyPdZm-6" edge="1">
          <mxGeometry relative="1" as="geometry">
            <mxPoint x="1100" y="710" as="sourcePoint" />
            <mxPoint x="1240" y="600" as="targetPoint" />
            <Array as="points">
              <mxPoint x="1240" y="500" />
            </Array>
          </mxGeometry>
        </mxCell>
        <mxCell id="rnpLa5qPzDcnM3WUcCY0-66" value="Movement" style="rounded=1;whiteSpace=wrap;html=1;fillColor=#7EA6E0;" parent="1" vertex="1">
          <mxGeometry x="900" y="500" width="80" height="40" as="geometry" />
        </mxCell>
        <mxCell id="IR4mewhrY6wyWwk8Pv0--3" value="Checkpoint Data" style="whiteSpace=wrap;html=1;fillColor=#FFFF66;fontColor=#1A1A1A;rounded=1;" parent="1" vertex="1">
          <mxGeometry x="1340" y="340" width="80" height="40" as="geometry" />
        </mxCell>
      </root>
    </mxGraphModel>
  </diagram>
  <diagram id="QmHr0TshCouHWpC32fNk" name="UML">
    <mxGraphModel dx="967" dy="482" grid="1" gridSize="10" guides="1" tooltips="1" connect="1" arrows="1" fold="1" page="0" pageScale="1" pageWidth="850" pageHeight="1100" math="0" shadow="1">
      <root>
        <mxCell id="0" />
        <mxCell id="1" parent="0" />
        <mxCell id="hgtmdTwZhl41JEXbKqHE-1" value="Entity - ABS" style="swimlane;fontStyle=1;align=center;verticalAlign=top;childLayout=stackLayout;horizontal=1;startSize=26;horizontalStack=0;resizeParent=1;resizeParentMax=0;resizeLast=0;collapsible=1;marginBottom=0;whiteSpace=wrap;html=1;rounded=1;fillColor=#f8cecc;strokeColor=#b85450;" vertex="1" parent="1">
          <mxGeometry x="580" y="360" width="160" height="100" as="geometry" />
        </mxCell>
        <mxCell id="hgtmdTwZhl41JEXbKqHE-2" value="- IsActive : bool" style="text;strokeColor=none;fillColor=none;align=left;verticalAlign=top;spacingLeft=4;spacingRight=4;overflow=hidden;rotatable=0;points=[[0,0.5],[1,0.5]];portConstraint=eastwest;whiteSpace=wrap;html=1;rounded=1;" vertex="1" parent="hgtmdTwZhl41JEXbKqHE-1">
          <mxGeometry y="26" width="160" height="26" as="geometry" />
        </mxCell>
        <mxCell id="hgtmdTwZhl41JEXbKqHE-3" value="" style="line;strokeWidth=1;fillColor=none;align=left;verticalAlign=middle;spacingTop=-1;spacingLeft=3;spacingRight=3;rotatable=0;labelPosition=right;points=[];portConstraint=eastwest;strokeColor=inherit;rounded=1;" vertex="1" parent="hgtmdTwZhl41JEXbKqHE-1">
          <mxGeometry y="52" width="160" height="8" as="geometry" />
        </mxCell>
        <mxCell id="hgtmdTwZhl41JEXbKqHE-4" value="+ &lt;u&gt;Initialise()&lt;/u&gt; : void&lt;br&gt;+ Enable() : void" style="text;strokeColor=none;fillColor=none;align=left;verticalAlign=top;spacingLeft=4;spacingRight=4;overflow=hidden;rotatable=0;points=[[0,0.5],[1,0.5]];portConstraint=eastwest;whiteSpace=wrap;html=1;rounded=1;" vertex="1" parent="hgtmdTwZhl41JEXbKqHE-1">
          <mxGeometry y="60" width="160" height="40" as="geometry" />
        </mxCell>
        <mxCell id="hgtmdTwZhl41JEXbKqHE-39" value="&lt;font style=&quot;font-size: 10px;&quot;&gt;IDamageable&lt;br style=&quot;font-size: 10px;&quot;&gt;&lt;/font&gt;" style="html=1;whiteSpace=wrap;rounded=1;direction=south;horizontal=0;fillColor=#fff2cc;strokeColor=#d6b656;fontSize=10;verticalAlign=middle;" vertex="1" parent="1">
          <mxGeometry x="560" y="360" width="17" height="70" as="geometry" />
        </mxCell>
        <mxCell id="hgtmdTwZhl41JEXbKqHE-44" style="edgeStyle=orthogonalEdgeStyle;orthogonalLoop=1;jettySize=auto;html=1;exitX=1;exitY=0.5;exitDx=0;exitDy=0;entryX=0.498;entryY=1;entryDx=0;entryDy=0;entryPerimeter=0;endArrow=block;endFill=0;rounded=1;" edge="1" parent="1" source="hgtmdTwZhl41JEXbKqHE-40" target="hgtmdTwZhl41JEXbKqHE-4">
          <mxGeometry relative="1" as="geometry">
            <mxPoint x="650" y="460" as="targetPoint" />
            <Array as="points">
              <mxPoint x="660" y="580" />
              <mxPoint x="660" y="500" />
            </Array>
          </mxGeometry>
        </mxCell>
        <mxCell id="hgtmdTwZhl41JEXbKqHE-40" value="Enemy" style="swimlane;fontStyle=1;align=center;verticalAlign=top;childLayout=stackLayout;horizontal=1;startSize=26;horizontalStack=0;resizeParent=1;resizeParentMax=0;resizeLast=0;collapsible=1;marginBottom=0;whiteSpace=wrap;html=1;rounded=1;fillColor=#f8cecc;strokeColor=#b85450;" vertex="1" parent="1">
          <mxGeometry x="460" y="520" width="180" height="120" as="geometry" />
        </mxCell>
        <mxCell id="hgtmdTwZhl41JEXbKqHE-41" value="- behaviours : List&amp;lt;Behaviours&amp;gt;" style="text;strokeColor=none;fillColor=none;align=left;verticalAlign=top;spacingLeft=4;spacingRight=4;overflow=hidden;rotatable=0;points=[[0,0.5],[1,0.5]];portConstraint=eastwest;whiteSpace=wrap;html=1;rounded=1;" vertex="1" parent="hgtmdTwZhl41JEXbKqHE-40">
          <mxGeometry y="26" width="180" height="26" as="geometry" />
        </mxCell>
        <mxCell id="hgtmdTwZhl41JEXbKqHE-42" value="" style="line;strokeWidth=1;fillColor=none;align=left;verticalAlign=middle;spacingTop=-1;spacingLeft=3;spacingRight=3;rotatable=0;labelPosition=right;points=[];portConstraint=eastwest;strokeColor=inherit;rounded=1;" vertex="1" parent="hgtmdTwZhl41JEXbKqHE-40">
          <mxGeometry y="52" width="180" height="8" as="geometry" />
        </mxCell>
        <mxCell id="hgtmdTwZhl41JEXbKqHE-43" value="+ Initialise() : void&lt;br&gt;- Update() : void&lt;br&gt;- ToggleBehaviours(bool) : void&amp;nbsp;" style="text;strokeColor=none;fillColor=none;align=left;verticalAlign=top;spacingLeft=4;spacingRight=4;overflow=hidden;rotatable=0;points=[[0,0.5],[1,0.5]];portConstraint=eastwest;whiteSpace=wrap;html=1;rounded=1;" vertex="1" parent="hgtmdTwZhl41JEXbKqHE-40">
          <mxGeometry y="60" width="180" height="60" as="geometry" />
        </mxCell>
        <mxCell id="hgtmdTwZhl41JEXbKqHE-59" style="edgeStyle=orthogonalEdgeStyle;rounded=1;orthogonalLoop=1;jettySize=auto;html=1;exitX=0;exitY=0.5;exitDx=0;exitDy=0;entryX=0.5;entryY=0;entryDx=0;entryDy=0;endArrow=block;endFill=1;startArrow=diamond;startFill=0;" edge="1" parent="1" source="hgtmdTwZhl41JEXbKqHE-41" target="hgtmdTwZhl41JEXbKqHE-45">
          <mxGeometry relative="1" as="geometry">
            <Array as="points">
              <mxPoint x="420" y="559" />
              <mxPoint x="420" y="660" />
              <mxPoint x="551" y="660" />
            </Array>
          </mxGeometry>
        </mxCell>
        <mxCell id="hgtmdTwZhl41JEXbKqHE-65" style="edgeStyle=orthogonalEdgeStyle;rounded=1;orthogonalLoop=1;jettySize=auto;html=1;exitX=0.001;exitY=0.569;exitDx=0;exitDy=0;endArrow=block;endFill=0;exitPerimeter=0;" edge="1" parent="1" source="hgtmdTwZhl41JEXbKqHE-62">
          <mxGeometry relative="1" as="geometry">
            <mxPoint x="660" y="460" as="targetPoint" />
            <Array as="points">
              <mxPoint x="660" y="580" />
            </Array>
          </mxGeometry>
        </mxCell>
        <mxCell id="hgtmdTwZhl41JEXbKqHE-61" value="ExplosiveBarell" style="swimlane;fontStyle=1;align=center;verticalAlign=top;childLayout=stackLayout;horizontal=1;startSize=26;horizontalStack=0;resizeParent=1;resizeParentMax=0;resizeLast=0;collapsible=1;marginBottom=0;whiteSpace=wrap;html=1;rounded=1;fillColor=#f8cecc;strokeColor=#b85450;" vertex="1" parent="1">
          <mxGeometry x="680" y="534" width="120" height="90" as="geometry" />
        </mxCell>
        <mxCell id="hgtmdTwZhl41JEXbKqHE-62" value="- damage : int&lt;br&gt;- range : float" style="text;strokeColor=none;fillColor=none;align=left;verticalAlign=top;spacingLeft=4;spacingRight=4;overflow=hidden;rotatable=0;points=[[0,0.5],[1,0.5]];portConstraint=eastwest;whiteSpace=wrap;html=1;rounded=1;" vertex="1" parent="hgtmdTwZhl41JEXbKqHE-61">
          <mxGeometry y="26" width="120" height="34" as="geometry" />
        </mxCell>
        <mxCell id="hgtmdTwZhl41JEXbKqHE-63" value="" style="line;strokeWidth=1;fillColor=none;align=left;verticalAlign=middle;spacingTop=-1;spacingLeft=3;spacingRight=3;rotatable=0;labelPosition=right;points=[];portConstraint=eastwest;strokeColor=inherit;rounded=1;" vertex="1" parent="hgtmdTwZhl41JEXbKqHE-61">
          <mxGeometry y="60" width="120" height="8" as="geometry" />
        </mxCell>
        <mxCell id="hgtmdTwZhl41JEXbKqHE-64" value="- PlayParticle : void" style="text;strokeColor=none;fillColor=none;align=left;verticalAlign=top;spacingLeft=4;spacingRight=4;overflow=hidden;rotatable=0;points=[[0,0.5],[1,0.5]];portConstraint=eastwest;whiteSpace=wrap;html=1;rounded=1;" vertex="1" parent="hgtmdTwZhl41JEXbKqHE-61">
          <mxGeometry y="68" width="120" height="22" as="geometry" />
        </mxCell>
        <mxCell id="hgtmdTwZhl41JEXbKqHE-87" style="edgeStyle=orthogonalEdgeStyle;rounded=1;orthogonalLoop=1;jettySize=auto;html=1;exitX=1;exitY=0.5;exitDx=0;exitDy=0;entryX=0.75;entryY=0;entryDx=0;entryDy=0;endArrow=open;endFill=0;" edge="1" parent="1" source="hgtmdTwZhl41JEXbKqHE-86" target="hgtmdTwZhl41JEXbKqHE-40">
          <mxGeometry relative="1" as="geometry" />
        </mxCell>
        <mxCell id="hgtmdTwZhl41JEXbKqHE-86" value="&lt;b&gt;Enemy Editor&lt;/b&gt;" style="rounded=1;whiteSpace=wrap;html=1;fillColor=#f8cecc;strokeColor=#b85450;fontStyle=4" vertex="1" parent="1">
          <mxGeometry x="460" y="480" width="100" height="30" as="geometry" />
        </mxCell>
        <mxCell id="hgtmdTwZhl41JEXbKqHE-113" value="" style="group" vertex="1" connectable="0" parent="1">
          <mxGeometry x="40" y="340" width="320" height="530" as="geometry" />
        </mxCell>
        <mxCell id="hgtmdTwZhl41JEXbKqHE-249" value="" style="group" vertex="1" connectable="0" parent="hgtmdTwZhl41JEXbKqHE-113">
          <mxGeometry y="21" width="320" height="450" as="geometry" />
        </mxCell>
        <mxCell id="hgtmdTwZhl41JEXbKqHE-31" value="&lt;h3&gt;&lt;b&gt;&lt;u&gt;UML CONVENTION&lt;/u&gt;&lt;/b&gt;&lt;/h3&gt;" style="rounded=1;whiteSpace=wrap;html=1;arcSize=4;verticalAlign=top;horizontal=1;spacingTop=-10;container=0;" vertex="1" parent="hgtmdTwZhl41JEXbKqHE-249">
          <mxGeometry width="320" height="450" as="geometry" />
        </mxCell>
        <mxCell id="hgtmdTwZhl41JEXbKqHE-6" value="C# Class" style="rounded=1;whiteSpace=wrap;html=1;container=0;" vertex="1" parent="hgtmdTwZhl41JEXbKqHE-249">
          <mxGeometry x="20.64516129032258" y="50" width="123.87096774193549" height="20" as="geometry" />
        </mxCell>
        <mxCell id="hgtmdTwZhl41JEXbKqHE-7" value="Mono Behaviour" style="rounded=1;whiteSpace=wrap;html=1;fillColor=#f8cecc;strokeColor=#b85450;container=0;" vertex="1" parent="hgtmdTwZhl41JEXbKqHE-249">
          <mxGeometry x="20.64516129032258" y="130" width="123.87096774193549" height="20" as="geometry" />
        </mxCell>
        <mxCell id="hgtmdTwZhl41JEXbKqHE-8" value="&lt;i&gt;&amp;lt;&amp;lt;Interface&amp;gt;&amp;gt;&lt;/i&gt;" style="rounded=1;whiteSpace=wrap;html=1;fillColor=#fff2cc;strokeColor=#d6b656;container=0;" vertex="1" parent="hgtmdTwZhl41JEXbKqHE-249">
          <mxGeometry x="20.64516129032258" y="90" width="123.87096774193549" height="20" as="geometry" />
        </mxCell>
        <mxCell id="hgtmdTwZhl41JEXbKqHE-9" value="&lt;b&gt;ABS&lt;/b&gt;" style="rounded=1;whiteSpace=wrap;html=1;container=0;" vertex="1" parent="hgtmdTwZhl41JEXbKqHE-249">
          <mxGeometry x="154.83870967741936" y="50" width="41.29032258064516" height="20" as="geometry" />
        </mxCell>
        <mxCell id="hgtmdTwZhl41JEXbKqHE-10" value="&lt;b&gt;ABS&lt;/b&gt;" style="rounded=1;whiteSpace=wrap;html=1;fillColor=#f8cecc;strokeColor=#b85450;container=0;" vertex="1" parent="hgtmdTwZhl41JEXbKqHE-249">
          <mxGeometry x="154.83870967741936" y="130" width="41.29032258064516" height="20" as="geometry" />
        </mxCell>
        <mxCell id="hgtmdTwZhl41JEXbKqHE-12" value="&lt;u&gt;Manager&lt;/u&gt;" style="rounded=1;whiteSpace=wrap;html=1;fillColor=#d5e8d4;strokeColor=#82b366;container=0;" vertex="1" parent="hgtmdTwZhl41JEXbKqHE-249">
          <mxGeometry x="20.64516129032258" y="170" width="123.87096774193549" height="20" as="geometry" />
        </mxCell>
        <mxCell id="hgtmdTwZhl41JEXbKqHE-13" value="&lt;b&gt;&lt;i&gt;STC&lt;/i&gt;&lt;/b&gt;" style="rounded=1;whiteSpace=wrap;html=1;container=0;" vertex="1" parent="hgtmdTwZhl41JEXbKqHE-249">
          <mxGeometry x="206.4516129032258" y="50" width="41.29032258064516" height="20" as="geometry" />
        </mxCell>
        <mxCell id="hgtmdTwZhl41JEXbKqHE-18" value="&lt;b&gt;&lt;i&gt;CMP&lt;/i&gt;&lt;/b&gt;" style="rounded=1;whiteSpace=wrap;html=1;fillColor=#f8cecc;strokeColor=#b85450;container=0;" vertex="1" parent="hgtmdTwZhl41JEXbKqHE-249">
          <mxGeometry x="258.06451612903226" y="130" width="41.29032258064516" height="20" as="geometry" />
        </mxCell>
        <mxCell id="hgtmdTwZhl41JEXbKqHE-19" value="&lt;b&gt;&lt;i&gt;&lt;u&gt;EDT&lt;/u&gt;&lt;/i&gt;&lt;/b&gt;" style="rounded=1;whiteSpace=wrap;html=1;fillColor=#f8cecc;strokeColor=#b85450;container=0;" vertex="1" parent="hgtmdTwZhl41JEXbKqHE-249">
          <mxGeometry x="206.4516129032258" y="130" width="41.29032258064516" height="20" as="geometry" />
        </mxCell>
        <mxCell id="hgtmdTwZhl41JEXbKqHE-20" value="+ public | - private | # protected | &lt;u&gt;virtual&lt;/u&gt;" style="text;strokeColor=none;fillColor=none;align=center;verticalAlign=middle;spacingLeft=4;spacingRight=4;overflow=hidden;points=[[0,0.5],[1,0.5]];portConstraint=eastwest;rotatable=0;whiteSpace=wrap;html=1;rounded=1;container=0;" vertex="1" parent="hgtmdTwZhl41JEXbKqHE-249">
          <mxGeometry x="20.64516129032258" y="290" width="289.0322580645161" height="40" as="geometry" />
        </mxCell>
        <mxCell id="hgtmdTwZhl41JEXbKqHE-22" value="" style="endArrow=block;html=1;endFill=0;rounded=1;" edge="1" parent="hgtmdTwZhl41JEXbKqHE-249">
          <mxGeometry width="50" height="50" relative="1" as="geometry">
            <mxPoint x="20.64516129032258" y="350" as="sourcePoint" />
            <mxPoint x="185.80645161290323" y="350" as="targetPoint" />
          </mxGeometry>
        </mxCell>
        <mxCell id="hgtmdTwZhl41JEXbKqHE-23" value="Inheritance" style="text;strokeColor=none;fillColor=none;align=right;verticalAlign=middle;spacingLeft=4;spacingRight=4;overflow=hidden;points=[[0,0.5],[1,0.5]];portConstraint=eastwest;rotatable=0;whiteSpace=wrap;html=1;rounded=1;container=0;" vertex="1" parent="hgtmdTwZhl41JEXbKqHE-249">
          <mxGeometry x="196.13" y="330" width="103.87" height="40" as="geometry" />
        </mxCell>
        <mxCell id="hgtmdTwZhl41JEXbKqHE-27" value="" style="endArrow=block;html=1;endFill=1;startArrow=diamond;startFill=0;rounded=1;" edge="1" parent="hgtmdTwZhl41JEXbKqHE-249">
          <mxGeometry width="50" height="50" relative="1" as="geometry">
            <mxPoint x="20.64516129032258" y="390" as="sourcePoint" />
            <mxPoint x="185.80645161290323" y="390" as="targetPoint" />
          </mxGeometry>
        </mxCell>
        <mxCell id="hgtmdTwZhl41JEXbKqHE-28" value="Aggregation" style="text;strokeColor=none;fillColor=none;align=right;verticalAlign=middle;spacingLeft=4;spacingRight=4;overflow=hidden;points=[[0,0.5],[1,0.5]];portConstraint=eastwest;rotatable=0;whiteSpace=wrap;html=1;rounded=1;container=0;" vertex="1" parent="hgtmdTwZhl41JEXbKqHE-249">
          <mxGeometry x="196.13" y="370" width="103.87" height="40" as="geometry" />
        </mxCell>
        <mxCell id="hgtmdTwZhl41JEXbKqHE-29" value="" style="endArrow=open;html=1;endFill=0;startArrow=none;startFill=0;dashed=1;rounded=1;" edge="1" parent="hgtmdTwZhl41JEXbKqHE-249">
          <mxGeometry width="50" height="50" relative="1" as="geometry">
            <mxPoint x="20.64516129032258" y="430" as="sourcePoint" />
            <mxPoint x="185.80645161290323" y="430" as="targetPoint" />
          </mxGeometry>
        </mxCell>
        <mxCell id="hgtmdTwZhl41JEXbKqHE-30" value="Communication" style="text;strokeColor=none;fillColor=none;align=right;verticalAlign=middle;spacingLeft=4;spacingRight=4;overflow=hidden;points=[[0,0.5],[1,0.5]];portConstraint=eastwest;rotatable=0;whiteSpace=wrap;html=1;rounded=1;container=0;" vertex="1" parent="hgtmdTwZhl41JEXbKqHE-249">
          <mxGeometry x="196.1290322580645" y="410" width="103.2258064516129" height="40" as="geometry" />
        </mxCell>
        <mxCell id="hgtmdTwZhl41JEXbKqHE-112" value="&lt;u&gt;&lt;b&gt;GameObject&lt;/b&gt;&lt;/u&gt;" style="rounded=1;whiteSpace=wrap;html=1;fillColor=#e1d5e7;strokeColor=#9673a6;container=0;" vertex="1" parent="hgtmdTwZhl41JEXbKqHE-249">
          <mxGeometry x="20.64516129032258" y="210" width="123.87096774193549" height="20" as="geometry" />
        </mxCell>
        <mxCell id="hgtmdTwZhl41JEXbKqHE-177" value="&lt;b&gt;&lt;i&gt;STC&lt;/i&gt;&lt;/b&gt;" style="rounded=1;whiteSpace=wrap;html=1;container=0;fillColor=#d5e8d4;strokeColor=#82b366;" vertex="1" parent="hgtmdTwZhl41JEXbKqHE-249">
          <mxGeometry x="154.83870967741936" y="170" width="41.29032258064516" height="20" as="geometry" />
        </mxCell>
        <mxCell id="hgtmdTwZhl41JEXbKqHE-208" value="&lt;u&gt;&lt;b&gt;Event&lt;/b&gt;&lt;/u&gt;" style="rounded=1;whiteSpace=wrap;html=1;fillColor=#dae8fc;strokeColor=#6c8ebf;container=0;" vertex="1" parent="hgtmdTwZhl41JEXbKqHE-249">
          <mxGeometry x="20.64516129032258" y="250" width="123.87096774193549" height="20" as="geometry" />
        </mxCell>
        <mxCell id="hgtmdTwZhl41JEXbKqHE-173" value="" style="group" vertex="1" connectable="0" parent="1">
          <mxGeometry x="881" y="880" width="234" height="571" as="geometry" />
        </mxCell>
        <mxCell id="hgtmdTwZhl41JEXbKqHE-115" value="&lt;b&gt;&lt;u&gt;PLAYER&lt;/u&gt;&lt;/b&gt;" style="rounded=1;whiteSpace=wrap;html=1;fillColor=#e1d5e7;strokeColor=#9673a6;" vertex="1" parent="hgtmdTwZhl41JEXbKqHE-173">
          <mxGeometry x="20" width="120" height="40" as="geometry" />
        </mxCell>
        <mxCell id="hgtmdTwZhl41JEXbKqHE-123" value="ShootingComponent - &lt;i&gt;CMP&lt;/i&gt;" style="swimlane;fontStyle=1;align=center;verticalAlign=top;childLayout=stackLayout;horizontal=1;startSize=26;horizontalStack=0;resizeParent=1;resizeParentMax=0;resizeLast=0;collapsible=1;marginBottom=0;whiteSpace=wrap;html=1;rounded=1;fillColor=#f8cecc;strokeColor=#b85450;" vertex="1" parent="hgtmdTwZhl41JEXbKqHE-173">
          <mxGeometry x="20" y="150" width="190" height="110" as="geometry" />
        </mxCell>
        <mxCell id="hgtmdTwZhl41JEXbKqHE-124" value="- capacity : int&lt;br&gt;- currentAmmo : int" style="text;strokeColor=none;fillColor=none;align=left;verticalAlign=top;spacingLeft=4;spacingRight=4;overflow=hidden;rotatable=0;points=[[0,0.5],[1,0.5]];portConstraint=eastwest;whiteSpace=wrap;html=1;rounded=1;" vertex="1" parent="hgtmdTwZhl41JEXbKqHE-123">
          <mxGeometry y="26" width="190" height="34" as="geometry" />
        </mxCell>
        <mxCell id="hgtmdTwZhl41JEXbKqHE-125" value="" style="line;strokeWidth=1;fillColor=none;align=left;verticalAlign=middle;spacingTop=-1;spacingLeft=3;spacingRight=3;rotatable=0;labelPosition=right;points=[];portConstraint=eastwest;strokeColor=inherit;rounded=1;" vertex="1" parent="hgtmdTwZhl41JEXbKqHE-123">
          <mxGeometry y="60" width="190" height="8" as="geometry" />
        </mxCell>
        <mxCell id="hgtmdTwZhl41JEXbKqHE-126" value="- Shoot(Input) : void&lt;br&gt;- Reload(Input) : void" style="text;strokeColor=none;fillColor=none;align=left;verticalAlign=top;spacingLeft=4;spacingRight=4;overflow=hidden;rotatable=0;points=[[0,0.5],[1,0.5]];portConstraint=eastwest;whiteSpace=wrap;html=1;rounded=1;" vertex="1" parent="hgtmdTwZhl41JEXbKqHE-123">
          <mxGeometry y="68" width="190" height="42" as="geometry" />
        </mxCell>
        <mxCell id="hgtmdTwZhl41JEXbKqHE-127" style="edgeStyle=orthogonalEdgeStyle;rounded=1;orthogonalLoop=1;jettySize=auto;html=1;exitX=0;exitY=0.5;exitDx=0;exitDy=0;entryX=0;entryY=0.25;entryDx=0;entryDy=0;endArrow=block;endFill=1;" edge="1" parent="hgtmdTwZhl41JEXbKqHE-173" source="hgtmdTwZhl41JEXbKqHE-115" target="hgtmdTwZhl41JEXbKqHE-123">
          <mxGeometry relative="1" as="geometry">
            <Array as="points">
              <mxPoint y="20" />
              <mxPoint y="178" />
            </Array>
          </mxGeometry>
        </mxCell>
        <mxCell id="hgtmdTwZhl41JEXbKqHE-129" value="CameraRotator - &lt;i&gt;CMP&lt;/i&gt;" style="swimlane;fontStyle=1;align=center;verticalAlign=top;childLayout=stackLayout;horizontal=1;startSize=26;horizontalStack=0;resizeParent=1;resizeParentMax=0;resizeLast=0;collapsible=1;marginBottom=0;whiteSpace=wrap;html=1;rounded=1;fillColor=#f8cecc;strokeColor=#b85450;" vertex="1" parent="hgtmdTwZhl41JEXbKqHE-173">
          <mxGeometry x="20" y="411" width="190" height="70" as="geometry" />
        </mxCell>
        <mxCell id="hgtmdTwZhl41JEXbKqHE-130" value="- OnCameraRotation(float) : void&amp;nbsp;&lt;br&gt;- ResetRotation() : void" style="text;strokeColor=none;fillColor=none;align=left;verticalAlign=top;spacingLeft=4;spacingRight=4;overflow=hidden;rotatable=0;points=[[0,0.5],[1,0.5]];portConstraint=eastwest;whiteSpace=wrap;html=1;rounded=1;" vertex="1" parent="hgtmdTwZhl41JEXbKqHE-129">
          <mxGeometry y="26" width="190" height="44" as="geometry" />
        </mxCell>
        <mxCell id="hgtmdTwZhl41JEXbKqHE-131" style="edgeStyle=orthogonalEdgeStyle;rounded=1;orthogonalLoop=1;jettySize=auto;html=1;exitX=0;exitY=0.5;exitDx=0;exitDy=0;entryX=0;entryY=0.25;entryDx=0;entryDy=0;endArrow=block;endFill=1;" edge="1" parent="hgtmdTwZhl41JEXbKqHE-173" source="hgtmdTwZhl41JEXbKqHE-115" target="hgtmdTwZhl41JEXbKqHE-129">
          <mxGeometry relative="1" as="geometry" />
        </mxCell>
        <mxCell id="hgtmdTwZhl41JEXbKqHE-132" value="CameraShake - &lt;i&gt;CMP&lt;/i&gt;" style="swimlane;fontStyle=1;align=center;verticalAlign=top;childLayout=stackLayout;horizontal=1;startSize=26;horizontalStack=0;resizeParent=1;resizeParentMax=0;resizeLast=0;collapsible=1;marginBottom=0;whiteSpace=wrap;html=1;rounded=1;fillColor=#f8cecc;strokeColor=#b85450;" vertex="1" parent="hgtmdTwZhl41JEXbKqHE-173">
          <mxGeometry x="20" y="501" width="190" height="70" as="geometry" />
        </mxCell>
        <mxCell id="hgtmdTwZhl41JEXbKqHE-133" value="- OnDamageTaken(int) : void&lt;br&gt;- OnExplosion() : void" style="text;strokeColor=none;fillColor=none;align=left;verticalAlign=top;spacingLeft=4;spacingRight=4;overflow=hidden;rotatable=0;points=[[0,0.5],[1,0.5]];portConstraint=eastwest;whiteSpace=wrap;html=1;rounded=1;" vertex="1" parent="hgtmdTwZhl41JEXbKqHE-132">
          <mxGeometry y="26" width="190" height="44" as="geometry" />
        </mxCell>
        <mxCell id="hgtmdTwZhl41JEXbKqHE-134" style="edgeStyle=orthogonalEdgeStyle;rounded=1;orthogonalLoop=1;jettySize=auto;html=1;exitX=0;exitY=0.5;exitDx=0;exitDy=0;entryX=0;entryY=0.25;entryDx=0;entryDy=0;endArrow=block;endFill=1;" edge="1" parent="hgtmdTwZhl41JEXbKqHE-173" source="hgtmdTwZhl41JEXbKqHE-115" target="hgtmdTwZhl41JEXbKqHE-132">
          <mxGeometry relative="1" as="geometry" />
        </mxCell>
        <mxCell id="hgtmdTwZhl41JEXbKqHE-168" value="CoverComponent - &lt;i&gt;CMP&lt;/i&gt;" style="swimlane;fontStyle=1;align=center;verticalAlign=top;childLayout=stackLayout;horizontal=1;startSize=26;horizontalStack=0;resizeParent=1;resizeParentMax=0;resizeLast=0;collapsible=1;marginBottom=0;whiteSpace=wrap;html=1;rounded=1;fillColor=#f8cecc;strokeColor=#b85450;" vertex="1" parent="hgtmdTwZhl41JEXbKqHE-173">
          <mxGeometry x="20" y="280" width="190" height="110" as="geometry" />
        </mxCell>
        <mxCell id="hgtmdTwZhl41JEXbKqHE-169" value="- peekDirection : V3" style="text;strokeColor=none;fillColor=none;align=left;verticalAlign=top;spacingLeft=4;spacingRight=4;overflow=hidden;rotatable=0;points=[[0,0.5],[1,0.5]];portConstraint=eastwest;whiteSpace=wrap;html=1;rounded=1;" vertex="1" parent="hgtmdTwZhl41JEXbKqHE-168">
          <mxGeometry y="26" width="190" height="24" as="geometry" />
        </mxCell>
        <mxCell id="hgtmdTwZhl41JEXbKqHE-170" value="" style="line;strokeWidth=1;fillColor=none;align=left;verticalAlign=middle;spacingTop=-1;spacingLeft=3;spacingRight=3;rotatable=0;labelPosition=right;points=[];portConstraint=eastwest;strokeColor=inherit;rounded=1;" vertex="1" parent="hgtmdTwZhl41JEXbKqHE-168">
          <mxGeometry y="50" width="190" height="8" as="geometry" />
        </mxCell>
        <mxCell id="hgtmdTwZhl41JEXbKqHE-171" value="- Cover(Input) : void&lt;br&gt;- UnCover(Input) : void&lt;br&gt;- ChangePeek(V3) : void" style="text;strokeColor=none;fillColor=none;align=left;verticalAlign=top;spacingLeft=4;spacingRight=4;overflow=hidden;rotatable=0;points=[[0,0.5],[1,0.5]];portConstraint=eastwest;whiteSpace=wrap;html=1;rounded=1;" vertex="1" parent="hgtmdTwZhl41JEXbKqHE-168">
          <mxGeometry y="58" width="190" height="52" as="geometry" />
        </mxCell>
        <mxCell id="hgtmdTwZhl41JEXbKqHE-172" style="edgeStyle=orthogonalEdgeStyle;rounded=1;orthogonalLoop=1;jettySize=auto;html=1;exitX=0;exitY=0.5;exitDx=0;exitDy=0;entryX=0;entryY=0.25;entryDx=0;entryDy=0;endArrow=block;endFill=1;" edge="1" parent="hgtmdTwZhl41JEXbKqHE-173" source="hgtmdTwZhl41JEXbKqHE-115" target="hgtmdTwZhl41JEXbKqHE-168">
          <mxGeometry relative="1" as="geometry" />
        </mxCell>
        <mxCell id="hgtmdTwZhl41JEXbKqHE-120" value="&lt;font style=&quot;&quot;&gt;&lt;font style=&quot;font-size: 11px;&quot;&gt;IDamageable&lt;/font&gt;&lt;br style=&quot;font-size: 13px;&quot;&gt;&lt;/font&gt;" style="html=1;whiteSpace=wrap;rounded=1;direction=west;horizontal=1;fillColor=#fff2cc;strokeColor=#d6b656;fontSize=13;" vertex="1" parent="hgtmdTwZhl41JEXbKqHE-173">
          <mxGeometry x="20" y="50" width="80" height="20" as="geometry" />
        </mxCell>
        <mxCell id="hgtmdTwZhl41JEXbKqHE-219" value="" style="group" vertex="1" connectable="0" parent="hgtmdTwZhl41JEXbKqHE-173">
          <mxGeometry x="20" y="79" width="214" height="111" as="geometry" />
        </mxCell>
        <mxCell id="hgtmdTwZhl41JEXbKqHE-116" value="HealthComponent - &lt;i&gt;CMP&lt;/i&gt;" style="swimlane;fontStyle=1;align=center;verticalAlign=top;childLayout=stackLayout;horizontal=1;startSize=26;horizontalStack=0;resizeParent=1;resizeParentMax=0;resizeLast=0;collapsible=1;marginBottom=0;whiteSpace=wrap;html=1;rounded=1;fillColor=#f8cecc;strokeColor=#b85450;" vertex="1" parent="hgtmdTwZhl41JEXbKqHE-219">
          <mxGeometry width="190" height="50" as="geometry" />
        </mxCell>
        <mxCell id="hgtmdTwZhl41JEXbKqHE-119" value="+ OnDeath() : void" style="text;strokeColor=none;fillColor=none;align=left;verticalAlign=top;spacingLeft=4;spacingRight=4;overflow=hidden;rotatable=0;points=[[0,0.5],[1,0.5]];portConstraint=eastwest;whiteSpace=wrap;html=1;rounded=1;" vertex="1" parent="hgtmdTwZhl41JEXbKqHE-116">
          <mxGeometry y="26" width="190" height="24" as="geometry" />
        </mxCell>
        <mxCell id="hgtmdTwZhl41JEXbKqHE-192" value="&lt;b&gt;&lt;u&gt;EVT&lt;/u&gt;&lt;/b&gt;" style="rounded=1;whiteSpace=wrap;html=1;fillColor=#dae8fc;strokeColor=#6c8ebf;direction=south;verticalAlign=middle;horizontal=0;" vertex="1" parent="hgtmdTwZhl41JEXbKqHE-219">
          <mxGeometry x="194" y="5" width="20" height="40" as="geometry" />
        </mxCell>
        <mxCell id="hgtmdTwZhl41JEXbKqHE-195" value="&lt;b&gt;&lt;u&gt;EVT&lt;/u&gt;&lt;/b&gt;" style="rounded=1;whiteSpace=wrap;html=1;fillColor=#dae8fc;strokeColor=#6c8ebf;direction=south;verticalAlign=middle;horizontal=0;" vertex="1" parent="hgtmdTwZhl41JEXbKqHE-219">
          <mxGeometry x="194" y="71" width="20" height="40" as="geometry" />
        </mxCell>
        <mxCell id="hgtmdTwZhl41JEXbKqHE-122" style="edgeStyle=orthogonalEdgeStyle;rounded=1;orthogonalLoop=1;jettySize=auto;html=1;exitX=0;exitY=0.5;exitDx=0;exitDy=0;entryX=0;entryY=0.25;entryDx=0;entryDy=0;endArrow=block;endFill=1;" edge="1" parent="hgtmdTwZhl41JEXbKqHE-173" source="hgtmdTwZhl41JEXbKqHE-115" target="hgtmdTwZhl41JEXbKqHE-116">
          <mxGeometry relative="1" as="geometry" />
        </mxCell>
        <mxCell id="hgtmdTwZhl41JEXbKqHE-189" style="edgeStyle=orthogonalEdgeStyle;rounded=1;orthogonalLoop=1;jettySize=auto;html=1;exitX=0;exitY=0.5;exitDx=0;exitDy=0;entryX=1;entryY=0.5;entryDx=0;entryDy=0;dashed=1;endArrow=open;endFill=0;" edge="1" parent="1" source="hgtmdTwZhl41JEXbKqHE-186" target="hgtmdTwZhl41JEXbKqHE-171">
          <mxGeometry relative="1" as="geometry" />
        </mxCell>
        <mxCell id="hgtmdTwZhl41JEXbKqHE-190" style="edgeStyle=orthogonalEdgeStyle;rounded=1;orthogonalLoop=1;jettySize=auto;html=1;exitX=0;exitY=0.5;exitDx=0;exitDy=0;entryX=1;entryY=0.5;entryDx=0;entryDy=0;dashed=1;endArrow=open;endFill=0;" edge="1" parent="1" source="hgtmdTwZhl41JEXbKqHE-186" target="hgtmdTwZhl41JEXbKqHE-126">
          <mxGeometry relative="1" as="geometry" />
        </mxCell>
        <mxCell id="hgtmdTwZhl41JEXbKqHE-196" value="&lt;b&gt;&lt;u&gt;EVT&lt;/u&gt;&lt;/b&gt;" style="rounded=1;whiteSpace=wrap;html=1;fillColor=#dae8fc;strokeColor=#6c8ebf;direction=south;verticalAlign=middle;horizontal=0;" vertex="1" parent="1">
          <mxGeometry x="1095" y="1160" width="20" height="40" as="geometry" />
        </mxCell>
        <mxCell id="hgtmdTwZhl41JEXbKqHE-197" value="&lt;b&gt;&lt;u&gt;EVT&lt;/u&gt;&lt;/b&gt;" style="rounded=1;whiteSpace=wrap;html=1;fillColor=#dae8fc;strokeColor=#6c8ebf;direction=south;verticalAlign=middle;horizontal=0;" vertex="1" parent="1">
          <mxGeometry x="1095" y="1290" width="20" height="40" as="geometry" />
        </mxCell>
        <mxCell id="hgtmdTwZhl41JEXbKqHE-198" value="&lt;b&gt;&lt;u&gt;EVT&lt;/u&gt;&lt;/b&gt;" style="rounded=1;whiteSpace=wrap;html=1;fillColor=#dae8fc;strokeColor=#6c8ebf;direction=south;verticalAlign=middle;horizontal=0;" vertex="1" parent="1">
          <mxGeometry x="1095" y="1380" width="20" height="40" as="geometry" />
        </mxCell>
        <mxCell id="hgtmdTwZhl41JEXbKqHE-216" value="" style="group" vertex="1" connectable="0" parent="1">
          <mxGeometry x="840" y="310" width="1182.91" height="510" as="geometry" />
        </mxCell>
        <mxCell id="hgtmdTwZhl41JEXbKqHE-176" value="" style="group" vertex="1" connectable="0" parent="hgtmdTwZhl41JEXbKqHE-216">
          <mxGeometry width="1182.91" height="510" as="geometry" />
        </mxCell>
        <mxCell id="hgtmdTwZhl41JEXbKqHE-66" value="&lt;u&gt;CheckpointManager&lt;/u&gt;" style="swimlane;fontStyle=1;align=center;verticalAlign=top;childLayout=stackLayout;horizontal=1;startSize=26;horizontalStack=0;resizeParent=1;resizeParentMax=0;resizeLast=0;collapsible=1;marginBottom=0;whiteSpace=wrap;html=1;rounded=1;fillColor=#d5e8d4;strokeColor=#82b366;" vertex="1" parent="hgtmdTwZhl41JEXbKqHE-176">
          <mxGeometry x="60" y="60" width="230" height="128" as="geometry" />
        </mxCell>
        <mxCell id="hgtmdTwZhl41JEXbKqHE-67" value="- creator : PathCreator&lt;br&gt;- checkpoints : List&amp;lt;Checkpoint&amp;gt;&lt;br&gt;- currentCheckpoint : Checkpoint" style="text;strokeColor=none;fillColor=none;align=left;verticalAlign=top;spacingLeft=4;spacingRight=4;overflow=hidden;rotatable=0;points=[[0,0.5],[1,0.5]];portConstraint=eastwest;whiteSpace=wrap;html=1;rounded=1;" vertex="1" parent="hgtmdTwZhl41JEXbKqHE-66">
          <mxGeometry y="26" width="230" height="54" as="geometry" />
        </mxCell>
        <mxCell id="hgtmdTwZhl41JEXbKqHE-68" value="" style="line;strokeWidth=1;fillColor=none;align=left;verticalAlign=middle;spacingTop=-1;spacingLeft=3;spacingRight=3;rotatable=0;labelPosition=right;points=[];portConstraint=eastwest;strokeColor=inherit;rounded=1;" vertex="1" parent="hgtmdTwZhl41JEXbKqHE-66">
          <mxGeometry y="80" width="230" height="8" as="geometry" />
        </mxCell>
        <mxCell id="hgtmdTwZhl41JEXbKqHE-69" value="- OnCheckpointReached(V3) : void&lt;br&gt;- OnEnemyKilled(Entity) : void" style="text;strokeColor=none;fillColor=none;align=left;verticalAlign=top;spacingLeft=4;spacingRight=4;overflow=hidden;rotatable=0;points=[[0,0.5],[1,0.5]];portConstraint=eastwest;whiteSpace=wrap;html=1;rounded=1;" vertex="1" parent="hgtmdTwZhl41JEXbKqHE-66">
          <mxGeometry y="88" width="230" height="40" as="geometry" />
        </mxCell>
        <mxCell id="hgtmdTwZhl41JEXbKqHE-70" value="Checkpoint" style="swimlane;fontStyle=1;align=center;verticalAlign=top;childLayout=stackLayout;horizontal=1;startSize=26;horizontalStack=0;resizeParent=1;resizeParentMax=0;resizeLast=0;collapsible=1;marginBottom=0;whiteSpace=wrap;html=1;rounded=1;" vertex="1" parent="hgtmdTwZhl41JEXbKqHE-176">
          <mxGeometry x="60" y="220" width="180" height="180" as="geometry" />
        </mxCell>
        <mxCell id="hgtmdTwZhl41JEXbKqHE-71" value="- waves : List&amp;lt;Wave&amp;gt;&lt;br&gt;- currentWave : Wave&lt;br&gt;+ TriggerArea : bool&lt;br&gt;+ PeekDirection : V3" style="text;strokeColor=none;fillColor=none;align=left;verticalAlign=top;spacingLeft=4;spacingRight=4;overflow=hidden;rotatable=0;points=[[0,0.5],[1,0.5]];portConstraint=eastwest;whiteSpace=wrap;html=1;rounded=1;" vertex="1" parent="hgtmdTwZhl41JEXbKqHE-70">
          <mxGeometry y="26" width="180" height="64" as="geometry" />
        </mxCell>
        <mxCell id="hgtmdTwZhl41JEXbKqHE-72" value="" style="line;strokeWidth=1;fillColor=none;align=left;verticalAlign=middle;spacingTop=-1;spacingLeft=3;spacingRight=3;rotatable=0;labelPosition=right;points=[];portConstraint=eastwest;strokeColor=inherit;rounded=1;" vertex="1" parent="hgtmdTwZhl41JEXbKqHE-70">
          <mxGeometry y="90" width="180" height="8" as="geometry" />
        </mxCell>
        <mxCell id="hgtmdTwZhl41JEXbKqHE-73" value="+ Initialise() : void&lt;br&gt;+ Contains(Entity) : bool&lt;br&gt;+ RemoveEntity(Entity) : void&lt;br&gt;+ IsWaveCleared() : bool&lt;br&gt;+ HasWavesLeft() : bool" style="text;strokeColor=none;fillColor=none;align=left;verticalAlign=top;spacingLeft=4;spacingRight=4;overflow=hidden;rotatable=0;points=[[0,0.5],[1,0.5]];portConstraint=eastwest;whiteSpace=wrap;html=1;rounded=1;" vertex="1" parent="hgtmdTwZhl41JEXbKqHE-70">
          <mxGeometry y="98" width="180" height="82" as="geometry" />
        </mxCell>
        <mxCell id="hgtmdTwZhl41JEXbKqHE-74" style="edgeStyle=orthogonalEdgeStyle;rounded=1;orthogonalLoop=1;jettySize=auto;html=1;exitX=0;exitY=0.5;exitDx=0;exitDy=0;entryX=0.5;entryY=0;entryDx=0;entryDy=0;endArrow=block;endFill=1;startArrow=diamond;startFill=0;" edge="1" parent="hgtmdTwZhl41JEXbKqHE-176" source="hgtmdTwZhl41JEXbKqHE-67" target="hgtmdTwZhl41JEXbKqHE-70">
          <mxGeometry relative="1" as="geometry">
            <Array as="points">
              <mxPoint x="40" y="113" />
              <mxPoint x="40" y="200" />
              <mxPoint x="150" y="200" />
            </Array>
          </mxGeometry>
        </mxCell>
        <mxCell id="hgtmdTwZhl41JEXbKqHE-75" value="Wave" style="swimlane;fontStyle=1;align=center;verticalAlign=top;childLayout=stackLayout;horizontal=1;startSize=26;horizontalStack=0;resizeParent=1;resizeParentMax=0;resizeLast=0;collapsible=1;marginBottom=0;whiteSpace=wrap;html=1;rounded=1;" vertex="1" parent="hgtmdTwZhl41JEXbKqHE-176">
          <mxGeometry x="60" y="440" width="145" height="70" as="geometry" />
        </mxCell>
        <mxCell id="hgtmdTwZhl41JEXbKqHE-76" value="+ entities : List&amp;lt;Entity&amp;gt;&lt;br&gt;+ cameraRotation : float" style="text;strokeColor=none;fillColor=none;align=left;verticalAlign=top;spacingLeft=4;spacingRight=4;overflow=hidden;rotatable=0;points=[[0,0.5],[1,0.5]];portConstraint=eastwest;whiteSpace=wrap;html=1;rounded=1;" vertex="1" parent="hgtmdTwZhl41JEXbKqHE-75">
          <mxGeometry y="26" width="145" height="44" as="geometry" />
        </mxCell>
        <mxCell id="hgtmdTwZhl41JEXbKqHE-80" style="edgeStyle=orthogonalEdgeStyle;rounded=1;orthogonalLoop=1;jettySize=auto;html=1;exitX=0;exitY=0.5;exitDx=0;exitDy=0;entryX=0.5;entryY=0;entryDx=0;entryDy=0;endArrow=block;endFill=1;startArrow=diamond;startFill=0;" edge="1" parent="hgtmdTwZhl41JEXbKqHE-176" source="hgtmdTwZhl41JEXbKqHE-71" target="hgtmdTwZhl41JEXbKqHE-75">
          <mxGeometry relative="1" as="geometry">
            <mxPoint x="-40" y="720" as="targetPoint" />
            <Array as="points">
              <mxPoint x="40" y="278" />
              <mxPoint x="40" y="420" />
              <mxPoint x="133" y="420" />
              <mxPoint x="133" y="440" />
            </Array>
          </mxGeometry>
        </mxCell>
        <mxCell id="hgtmdTwZhl41JEXbKqHE-82" value="&lt;font style=&quot;font-size: 13px;&quot;&gt;Entity&lt;br style=&quot;font-size: 13px;&quot;&gt;&lt;/font&gt;" style="html=1;whiteSpace=wrap;rounded=1;direction=south;horizontal=0;fillColor=#f8cecc;strokeColor=#b85450;fontSize=13;" vertex="1" parent="hgtmdTwZhl41JEXbKqHE-176">
          <mxGeometry y="440" width="30" height="70" as="geometry" />
        </mxCell>
        <mxCell id="hgtmdTwZhl41JEXbKqHE-83" style="edgeStyle=orthogonalEdgeStyle;rounded=1;orthogonalLoop=1;jettySize=auto;html=1;exitX=0;exitY=0.5;exitDx=0;exitDy=0;entryX=0.5;entryY=0;entryDx=0;entryDy=0;endArrow=block;endFill=1;startArrow=diamond;startFill=0;" edge="1" parent="hgtmdTwZhl41JEXbKqHE-176" source="hgtmdTwZhl41JEXbKqHE-75" target="hgtmdTwZhl41JEXbKqHE-82">
          <mxGeometry relative="1" as="geometry" />
        </mxCell>
        <mxCell id="hgtmdTwZhl41JEXbKqHE-85" style="edgeStyle=orthogonalEdgeStyle;rounded=1;orthogonalLoop=1;jettySize=auto;html=1;exitX=1;exitY=0.5;exitDx=0;exitDy=0;entryX=0.75;entryY=0;entryDx=0;entryDy=0;endArrow=open;endFill=0;" edge="1" parent="hgtmdTwZhl41JEXbKqHE-176" source="hgtmdTwZhl41JEXbKqHE-84" target="hgtmdTwZhl41JEXbKqHE-66">
          <mxGeometry relative="1" as="geometry" />
        </mxCell>
        <mxCell id="hgtmdTwZhl41JEXbKqHE-84" value="&lt;b&gt;&lt;u&gt;CheckpointManager&lt;br&gt;Editor&lt;/u&gt;&lt;/b&gt;" style="rounded=1;whiteSpace=wrap;html=1;fillColor=#d5e8d4;strokeColor=#82b366;" vertex="1" parent="hgtmdTwZhl41JEXbKqHE-176">
          <mxGeometry x="60" y="20" width="150" height="30" as="geometry" />
        </mxCell>
        <mxCell id="hgtmdTwZhl41JEXbKqHE-202" value="&lt;b&gt;&lt;u&gt;EVT&lt;/u&gt;&lt;/b&gt;" style="rounded=1;whiteSpace=wrap;html=1;fillColor=#dae8fc;strokeColor=#6c8ebf;direction=south;verticalAlign=middle;horizontal=0;" vertex="1" parent="hgtmdTwZhl41JEXbKqHE-176">
          <mxGeometry x="243" y="220" width="20" height="40" as="geometry" />
        </mxCell>
        <mxCell id="hgtmdTwZhl41JEXbKqHE-255" value="Path" style="swimlane;fontStyle=1;align=center;verticalAlign=top;childLayout=stackLayout;horizontal=1;startSize=26;horizontalStack=0;resizeParent=1;resizeParentMax=0;resizeLast=0;collapsible=1;marginBottom=0;whiteSpace=wrap;html=1;rounded=1;" vertex="1" parent="hgtmdTwZhl41JEXbKqHE-176">
          <mxGeometry x="659.91" y="180" width="220" height="250" as="geometry">
            <mxRectangle x="850" y="180" width="70" height="30" as="alternateBounds" />
          </mxGeometry>
        </mxCell>
        <mxCell id="hgtmdTwZhl41JEXbKqHE-256" value="- points : List&amp;lt;V3&amp;gt;&lt;br&gt;+ IsClosed : bool&lt;br&gt;+ AutosetControlPoints : bool&lt;br&gt;+ NumPoints : int&lt;br&gt;+ NumSegments : int" style="text;strokeColor=none;fillColor=none;align=left;verticalAlign=top;spacingLeft=4;spacingRight=4;overflow=hidden;rotatable=0;points=[[0,0.5],[1,0.5]];portConstraint=eastwest;whiteSpace=wrap;html=1;rounded=1;" vertex="1" parent="hgtmdTwZhl41JEXbKqHE-255">
          <mxGeometry y="26" width="220" height="84" as="geometry" />
        </mxCell>
        <mxCell id="hgtmdTwZhl41JEXbKqHE-257" value="" style="line;strokeWidth=1;fillColor=none;align=left;verticalAlign=middle;spacingTop=-1;spacingLeft=3;spacingRight=3;rotatable=0;labelPosition=right;points=[];portConstraint=eastwest;strokeColor=inherit;rounded=1;" vertex="1" parent="hgtmdTwZhl41JEXbKqHE-255">
          <mxGeometry y="110" width="220" height="8" as="geometry" />
        </mxCell>
        <mxCell id="hgtmdTwZhl41JEXbKqHE-258" value="+ AddSegment(V3) : void&lt;br&gt;+ SplitSegment(V3, int) : void&lt;br&gt;+ DeleteSegment(int) : void&lt;br&gt;+ MovePoint(int, V3) : void&lt;br&gt;+ GetPointsInSegment(int) : V3[]&lt;br&gt;+ GetDirection(float) : V3&lt;br&gt;+ GetPoint(float) : V3&lt;br&gt;+ GetControlPoints() : List&amp;lt;V3&amp;gt;" style="text;strokeColor=none;fillColor=none;align=left;verticalAlign=top;spacingLeft=4;spacingRight=4;overflow=hidden;rotatable=0;points=[[0,0.5],[1,0.5]];portConstraint=eastwest;whiteSpace=wrap;html=1;rounded=1;" vertex="1" parent="hgtmdTwZhl41JEXbKqHE-255">
          <mxGeometry y="118" width="220" height="132" as="geometry" />
        </mxCell>
        <mxCell id="hgtmdTwZhl41JEXbKqHE-251" value="PathCreator" style="swimlane;fontStyle=1;align=center;verticalAlign=top;childLayout=stackLayout;horizontal=1;startSize=26;horizontalStack=0;resizeParent=1;resizeParentMax=0;resizeLast=0;collapsible=1;marginBottom=0;whiteSpace=wrap;html=1;rounded=1;fillColor=#f8cecc;strokeColor=#b85450;" vertex="1" parent="hgtmdTwZhl41JEXbKqHE-176">
          <mxGeometry x="659.91" y="50" width="180" height="110" as="geometry" />
        </mxCell>
        <mxCell id="hgtmdTwZhl41JEXbKqHE-252" value="+ path : Path" style="text;strokeColor=none;fillColor=none;align=left;verticalAlign=top;spacingLeft=4;spacingRight=4;overflow=hidden;rotatable=0;points=[[0,0.5],[1,0.5]];portConstraint=eastwest;whiteSpace=wrap;html=1;rounded=1;" vertex="1" parent="hgtmdTwZhl41JEXbKqHE-251">
          <mxGeometry y="26" width="180" height="24" as="geometry" />
        </mxCell>
        <mxCell id="hgtmdTwZhl41JEXbKqHE-253" value="" style="line;strokeWidth=1;fillColor=none;align=left;verticalAlign=middle;spacingTop=-1;spacingLeft=3;spacingRight=3;rotatable=0;labelPosition=right;points=[];portConstraint=eastwest;strokeColor=inherit;rounded=1;" vertex="1" parent="hgtmdTwZhl41JEXbKqHE-251">
          <mxGeometry y="50" width="180" height="8" as="geometry" />
        </mxCell>
        <mxCell id="hgtmdTwZhl41JEXbKqHE-254" value="+ CreatePath() : void&lt;br&gt;- Reset() : void&lt;br&gt;+ SetY() : void" style="text;strokeColor=none;fillColor=none;align=left;verticalAlign=top;spacingLeft=4;spacingRight=4;overflow=hidden;rotatable=0;points=[[0,0.5],[1,0.5]];portConstraint=eastwest;whiteSpace=wrap;html=1;rounded=1;" vertex="1" parent="hgtmdTwZhl41JEXbKqHE-251">
          <mxGeometry y="58" width="180" height="52" as="geometry" />
        </mxCell>
        <mxCell id="hgtmdTwZhl41JEXbKqHE-259" style="edgeStyle=orthogonalEdgeStyle;rounded=1;orthogonalLoop=1;jettySize=auto;html=1;exitX=0;exitY=0.5;exitDx=0;exitDy=0;entryX=0;entryY=0.5;entryDx=0;entryDy=0;endArrow=block;endFill=1;" edge="1" parent="hgtmdTwZhl41JEXbKqHE-176" source="hgtmdTwZhl41JEXbKqHE-252" target="hgtmdTwZhl41JEXbKqHE-256">
          <mxGeometry relative="1" as="geometry">
            <Array as="points">
              <mxPoint x="639.9100000000001" y="88" />
              <mxPoint x="639.9100000000001" y="248" />
            </Array>
          </mxGeometry>
        </mxCell>
        <mxCell id="hgtmdTwZhl41JEXbKqHE-260" value="PathWalker" style="swimlane;fontStyle=1;align=center;verticalAlign=top;childLayout=stackLayout;horizontal=1;startSize=26;horizontalStack=0;resizeParent=1;resizeParentMax=0;resizeLast=0;collapsible=1;marginBottom=0;whiteSpace=wrap;html=1;rounded=1;fillColor=#f8cecc;strokeColor=#b85450;" vertex="1" parent="hgtmdTwZhl41JEXbKqHE-176">
          <mxGeometry x="919.96" y="50" width="180" height="140" as="geometry" />
        </mxCell>
        <mxCell id="hgtmdTwZhl41JEXbKqHE-261" value="+ creator : PathCreator&lt;br&gt;+ tollerance : float&lt;br&gt;+ lookForward : bool&lt;br&gt;+ &lt;u&gt;Move&lt;/u&gt; : bool&lt;br&gt;" style="text;strokeColor=none;fillColor=none;align=left;verticalAlign=top;spacingLeft=4;spacingRight=4;overflow=hidden;rotatable=0;points=[[0,0.5],[1,0.5]];portConstraint=eastwest;whiteSpace=wrap;html=1;rounded=1;" vertex="1" parent="hgtmdTwZhl41JEXbKqHE-260">
          <mxGeometry y="26" width="180" height="74" as="geometry" />
        </mxCell>
        <mxCell id="hgtmdTwZhl41JEXbKqHE-262" value="" style="line;strokeWidth=1;fillColor=none;align=left;verticalAlign=middle;spacingTop=-1;spacingLeft=3;spacingRight=3;rotatable=0;labelPosition=right;points=[];portConstraint=eastwest;strokeColor=inherit;rounded=1;" vertex="1" parent="hgtmdTwZhl41JEXbKqHE-260">
          <mxGeometry y="100" width="180" height="8" as="geometry" />
        </mxCell>
        <mxCell id="hgtmdTwZhl41JEXbKqHE-263" value="# &lt;u&gt;Update()&lt;/u&gt; : void" style="text;strokeColor=none;fillColor=none;align=left;verticalAlign=top;spacingLeft=4;spacingRight=4;overflow=hidden;rotatable=0;points=[[0,0.5],[1,0.5]];portConstraint=eastwest;whiteSpace=wrap;html=1;rounded=1;" vertex="1" parent="hgtmdTwZhl41JEXbKqHE-260">
          <mxGeometry y="108" width="180" height="32" as="geometry" />
        </mxCell>
        <mxCell id="hgtmdTwZhl41JEXbKqHE-264" value="PlayerPathWalker" style="swimlane;fontStyle=1;align=center;verticalAlign=top;childLayout=stackLayout;horizontal=1;startSize=26;horizontalStack=0;resizeParent=1;resizeParentMax=0;resizeLast=0;collapsible=1;marginBottom=0;whiteSpace=wrap;html=1;rounded=1;fillColor=#f8cecc;strokeColor=#b85450;" vertex="1" parent="hgtmdTwZhl41JEXbKqHE-176">
          <mxGeometry x="919.96" y="210" width="190" height="130" as="geometry" />
        </mxCell>
        <mxCell id="hgtmdTwZhl41JEXbKqHE-265" value="- destination : V3" style="text;strokeColor=none;fillColor=none;align=left;verticalAlign=top;spacingLeft=4;spacingRight=4;overflow=hidden;rotatable=0;points=[[0,0.5],[1,0.5]];portConstraint=eastwest;whiteSpace=wrap;html=1;rounded=1;" vertex="1" parent="hgtmdTwZhl41JEXbKqHE-264">
          <mxGeometry y="26" width="190" height="24" as="geometry" />
        </mxCell>
        <mxCell id="hgtmdTwZhl41JEXbKqHE-266" value="" style="line;strokeWidth=1;fillColor=none;align=left;verticalAlign=middle;spacingTop=-1;spacingLeft=3;spacingRight=3;rotatable=0;labelPosition=right;points=[];portConstraint=eastwest;strokeColor=inherit;rounded=1;" vertex="1" parent="hgtmdTwZhl41JEXbKqHE-264">
          <mxGeometry y="50" width="190" height="8" as="geometry" />
        </mxCell>
        <mxCell id="hgtmdTwZhl41JEXbKqHE-267" value="# &lt;u&gt;Update()&lt;/u&gt; : void&lt;br&gt;- SetDestination(V3) : void&lt;br&gt;- OnCheckpointCleared() : void&lt;br&gt;- OnCheckpointReached() : void" style="text;strokeColor=none;fillColor=none;align=left;verticalAlign=top;spacingLeft=4;spacingRight=4;overflow=hidden;rotatable=0;points=[[0,0.5],[1,0.5]];portConstraint=eastwest;whiteSpace=wrap;html=1;rounded=1;" vertex="1" parent="hgtmdTwZhl41JEXbKqHE-264">
          <mxGeometry y="58" width="190" height="72" as="geometry" />
        </mxCell>
        <mxCell id="hgtmdTwZhl41JEXbKqHE-269" style="edgeStyle=orthogonalEdgeStyle;rounded=1;orthogonalLoop=1;jettySize=auto;html=1;exitX=0;exitY=0.5;exitDx=0;exitDy=0;entryX=0;entryY=0.5;entryDx=0;entryDy=0;endArrow=block;endFill=0;" edge="1" parent="hgtmdTwZhl41JEXbKqHE-176" source="hgtmdTwZhl41JEXbKqHE-265" target="hgtmdTwZhl41JEXbKqHE-263">
          <mxGeometry relative="1" as="geometry" />
        </mxCell>
        <mxCell id="hgtmdTwZhl41JEXbKqHE-270" style="edgeStyle=orthogonalEdgeStyle;rounded=1;orthogonalLoop=1;jettySize=auto;html=1;exitX=0;exitY=0.5;exitDx=0;exitDy=0;entryX=1;entryY=0.5;entryDx=0;entryDy=0;endArrow=block;endFill=1;" edge="1" parent="hgtmdTwZhl41JEXbKqHE-176" source="hgtmdTwZhl41JEXbKqHE-261" target="hgtmdTwZhl41JEXbKqHE-252">
          <mxGeometry relative="1" as="geometry" />
        </mxCell>
        <mxCell id="hgtmdTwZhl41JEXbKqHE-273" value="&lt;b&gt;&lt;u&gt;EVT&lt;/u&gt;&lt;/b&gt;" style="rounded=1;whiteSpace=wrap;html=1;fillColor=#dae8fc;strokeColor=#6c8ebf;direction=south;verticalAlign=middle;horizontal=0;" vertex="1" parent="hgtmdTwZhl41JEXbKqHE-176">
          <mxGeometry x="1112.96" y="210" width="20" height="40" as="geometry" />
        </mxCell>
        <mxCell id="hgtmdTwZhl41JEXbKqHE-204" value="&lt;b&gt;&lt;u&gt;EVT&lt;/u&gt;&lt;/b&gt;" style="rounded=1;whiteSpace=wrap;html=1;fillColor=#dae8fc;strokeColor=#6c8ebf;direction=south;verticalAlign=middle;horizontal=0;" vertex="1" parent="hgtmdTwZhl41JEXbKqHE-216">
          <mxGeometry x="293" y="60" width="20" height="40" as="geometry" />
        </mxCell>
        <mxCell id="hgtmdTwZhl41JEXbKqHE-217" value="" style="group" vertex="1" connectable="0" parent="1">
          <mxGeometry x="1460" y="880" width="430" height="300" as="geometry" />
        </mxCell>
        <mxCell id="hgtmdTwZhl41JEXbKqHE-175" value="" style="group" vertex="1" connectable="0" parent="hgtmdTwZhl41JEXbKqHE-217">
          <mxGeometry width="430" height="300" as="geometry" />
        </mxCell>
        <mxCell id="hgtmdTwZhl41JEXbKqHE-162" value="TimerTick" style="swimlane;fontStyle=1;align=center;verticalAlign=top;childLayout=stackLayout;horizontal=1;startSize=26;horizontalStack=0;resizeParent=1;resizeParentMax=0;resizeLast=0;collapsible=1;marginBottom=0;whiteSpace=wrap;html=1;rounded=1;" vertex="1" parent="hgtmdTwZhl41JEXbKqHE-175">
          <mxGeometry x="1" y="190" width="180" height="110" as="geometry" />
        </mxCell>
        <mxCell id="hgtmdTwZhl41JEXbKqHE-163" value="- time : float&lt;br&gt;+ Time : float" style="text;strokeColor=none;fillColor=none;align=left;verticalAlign=top;spacingLeft=4;spacingRight=4;overflow=hidden;rotatable=0;points=[[0,0.5],[1,0.5]];portConstraint=eastwest;whiteSpace=wrap;html=1;rounded=1;" vertex="1" parent="hgtmdTwZhl41JEXbKqHE-162">
          <mxGeometry y="26" width="180" height="34" as="geometry" />
        </mxCell>
        <mxCell id="hgtmdTwZhl41JEXbKqHE-164" value="" style="line;strokeWidth=1;fillColor=none;align=left;verticalAlign=middle;spacingTop=-1;spacingLeft=3;spacingRight=3;rotatable=0;labelPosition=right;points=[];portConstraint=eastwest;strokeColor=inherit;rounded=1;" vertex="1" parent="hgtmdTwZhl41JEXbKqHE-162">
          <mxGeometry y="60" width="180" height="8" as="geometry" />
        </mxCell>
        <mxCell id="hgtmdTwZhl41JEXbKqHE-165" value="+ Add(float) : void&lt;br&gt;+ Tick(float) : void" style="text;strokeColor=none;fillColor=none;align=left;verticalAlign=top;spacingLeft=4;spacingRight=4;overflow=hidden;rotatable=0;points=[[0,0.5],[1,0.5]];portConstraint=eastwest;whiteSpace=wrap;html=1;rounded=1;" vertex="1" parent="hgtmdTwZhl41JEXbKqHE-162">
          <mxGeometry y="68" width="180" height="42" as="geometry" />
        </mxCell>
        <mxCell id="hgtmdTwZhl41JEXbKqHE-166" value="" style="group" vertex="1" connectable="0" parent="hgtmdTwZhl41JEXbKqHE-175">
          <mxGeometry width="200" height="160" as="geometry" />
        </mxCell>
        <mxCell id="hgtmdTwZhl41JEXbKqHE-158" value="&lt;u&gt;TimeManager&lt;/u&gt;" style="swimlane;fontStyle=1;align=center;verticalAlign=top;childLayout=stackLayout;horizontal=1;startSize=26;horizontalStack=0;resizeParent=1;resizeParentMax=0;resizeLast=0;collapsible=1;marginBottom=0;whiteSpace=wrap;html=1;rounded=1;fillColor=#d5e8d4;strokeColor=#82b366;container=0;" vertex="1" parent="hgtmdTwZhl41JEXbKqHE-166">
          <mxGeometry width="200" height="160" as="geometry" />
        </mxCell>
        <mxCell id="hgtmdTwZhl41JEXbKqHE-159" value="- startingTIme : float&lt;br&gt;- countdownTimer : TimerTick&lt;br&gt;- playerTimer : TimerTick" style="text;strokeColor=none;fillColor=none;align=left;verticalAlign=top;spacingLeft=4;spacingRight=4;overflow=hidden;rotatable=0;points=[[0,0.5],[1,0.5]];portConstraint=eastwest;whiteSpace=wrap;html=1;rounded=1;container=0;" vertex="1" parent="hgtmdTwZhl41JEXbKqHE-166">
          <mxGeometry y="26" width="200" height="54" as="geometry" />
        </mxCell>
        <mxCell id="hgtmdTwZhl41JEXbKqHE-160" value="" style="line;strokeWidth=1;fillColor=none;align=left;verticalAlign=middle;spacingTop=-1;spacingLeft=3;spacingRight=3;rotatable=0;labelPosition=right;points=[];portConstraint=eastwest;strokeColor=inherit;rounded=1;container=0;" vertex="1" parent="hgtmdTwZhl41JEXbKqHE-166">
          <mxGeometry y="80" width="200" height="8" as="geometry" />
        </mxCell>
        <mxCell id="hgtmdTwZhl41JEXbKqHE-161" value="- Update() : void&lt;br&gt;- StartTick() : void&lt;br&gt;- OnTimeAdded(float) : void&lt;br&gt;- SendFinalTime(string) : void" style="text;strokeColor=none;fillColor=none;align=left;verticalAlign=top;spacingLeft=4;spacingRight=4;overflow=hidden;rotatable=0;points=[[0,0.5],[1,0.5]];portConstraint=eastwest;whiteSpace=wrap;html=1;rounded=1;container=0;" vertex="1" parent="hgtmdTwZhl41JEXbKqHE-166">
          <mxGeometry y="88" width="200" height="72" as="geometry" />
        </mxCell>
        <mxCell id="hgtmdTwZhl41JEXbKqHE-167" style="edgeStyle=orthogonalEdgeStyle;rounded=1;orthogonalLoop=1;jettySize=auto;html=1;exitX=0;exitY=0.5;exitDx=0;exitDy=0;entryX=0;entryY=0.5;entryDx=0;entryDy=0;endArrow=block;endFill=1;startArrow=diamond;startFill=0;" edge="1" parent="hgtmdTwZhl41JEXbKqHE-175" source="hgtmdTwZhl41JEXbKqHE-159" target="hgtmdTwZhl41JEXbKqHE-163">
          <mxGeometry relative="1" as="geometry" />
        </mxCell>
        <mxCell id="hgtmdTwZhl41JEXbKqHE-201" value="&lt;b&gt;&lt;u&gt;EVT&lt;/u&gt;&lt;/b&gt;" style="rounded=1;whiteSpace=wrap;html=1;fillColor=#dae8fc;strokeColor=#6c8ebf;direction=south;verticalAlign=middle;horizontal=0;" vertex="1" parent="hgtmdTwZhl41JEXbKqHE-217">
          <mxGeometry x="204" width="20" height="40" as="geometry" />
        </mxCell>
        <mxCell id="hgtmdTwZhl41JEXbKqHE-218" value="" style="group" vertex="1" connectable="0" parent="1">
          <mxGeometry x="1180" y="880" width="230" height="571" as="geometry" />
        </mxCell>
        <mxCell id="hgtmdTwZhl41JEXbKqHE-174" value="" style="group" vertex="1" connectable="0" parent="hgtmdTwZhl41JEXbKqHE-218">
          <mxGeometry width="220.04999999999995" height="330" as="geometry" />
        </mxCell>
        <mxCell id="hgtmdTwZhl41JEXbKqHE-136" value="ObjectPooler - ABS" style="swimlane;fontStyle=1;align=center;verticalAlign=top;childLayout=stackLayout;horizontal=1;startSize=26;horizontalStack=0;resizeParent=1;resizeParentMax=0;resizeLast=0;collapsible=1;marginBottom=0;whiteSpace=wrap;html=1;rounded=1;fillColor=#f8cecc;strokeColor=#b85450;container=0;" vertex="1" parent="hgtmdTwZhl41JEXbKqHE-174">
          <mxGeometry width="220.04999999999998" height="118" as="geometry" />
        </mxCell>
        <mxCell id="hgtmdTwZhl41JEXbKqHE-140" value="- objectToPool : PoolableObject&lt;br&gt;- objects : Queue&amp;lt;GameObject&amp;gt;" style="text;strokeColor=none;fillColor=none;align=left;verticalAlign=top;spacingLeft=4;spacingRight=4;overflow=hidden;rotatable=0;points=[[0,0.5],[1,0.5]];portConstraint=eastwest;whiteSpace=wrap;html=1;rounded=1;container=0;" vertex="1" parent="hgtmdTwZhl41JEXbKqHE-174">
          <mxGeometry y="26" width="220.04999999999998" height="44" as="geometry" />
        </mxCell>
        <mxCell id="hgtmdTwZhl41JEXbKqHE-138" value="" style="line;strokeWidth=1;fillColor=none;align=left;verticalAlign=middle;spacingTop=-1;spacingLeft=3;spacingRight=3;rotatable=0;labelPosition=right;points=[];portConstraint=eastwest;strokeColor=inherit;rounded=1;container=0;" vertex="1" parent="hgtmdTwZhl41JEXbKqHE-174">
          <mxGeometry y="70" width="220.04999999999998" height="8" as="geometry" />
        </mxCell>
        <mxCell id="hgtmdTwZhl41JEXbKqHE-139" value="+ GetPooledObject() : GameObject&lt;br&gt;- Init() : void" style="text;strokeColor=none;fillColor=none;align=left;verticalAlign=top;spacingLeft=4;spacingRight=4;overflow=hidden;rotatable=0;points=[[0,0.5],[1,0.5]];portConstraint=eastwest;whiteSpace=wrap;html=1;rounded=1;container=0;" vertex="1" parent="hgtmdTwZhl41JEXbKqHE-174">
          <mxGeometry y="78" width="220.04999999999998" height="40" as="geometry" />
        </mxCell>
        <mxCell id="hgtmdTwZhl41JEXbKqHE-141" value="BulletParticlePooler" style="swimlane;fontStyle=1;align=center;verticalAlign=top;childLayout=stackLayout;horizontal=1;startSize=26;horizontalStack=0;resizeParent=1;resizeParentMax=0;resizeLast=0;collapsible=1;marginBottom=0;whiteSpace=wrap;html=1;rounded=1;fillColor=#f8cecc;strokeColor=#b85450;container=0;" vertex="1" parent="hgtmdTwZhl41JEXbKqHE-174">
          <mxGeometry y="150" width="140" height="50" as="geometry" />
        </mxCell>
        <mxCell id="hgtmdTwZhl41JEXbKqHE-143" style="edgeStyle=orthogonalEdgeStyle;rounded=1;orthogonalLoop=1;jettySize=auto;html=1;exitX=0;exitY=0.25;exitDx=0;exitDy=0;entryX=0;entryY=0.5;entryDx=0;entryDy=0;endArrow=block;endFill=0;" edge="1" parent="hgtmdTwZhl41JEXbKqHE-174" source="hgtmdTwZhl41JEXbKqHE-141" target="hgtmdTwZhl41JEXbKqHE-139">
          <mxGeometry relative="1" as="geometry" />
        </mxCell>
        <mxCell id="hgtmdTwZhl41JEXbKqHE-142" value="- OnBulletHit(V3) : void" style="text;strokeColor=none;fillColor=none;align=left;verticalAlign=top;spacingLeft=4;spacingRight=4;overflow=hidden;rotatable=0;points=[[0,0.5],[1,0.5]];portConstraint=eastwest;whiteSpace=wrap;html=1;rounded=1;container=0;" vertex="1" parent="hgtmdTwZhl41JEXbKqHE-174">
          <mxGeometry y="176" width="157.17857142857142" height="24" as="geometry" />
        </mxCell>
        <mxCell id="hgtmdTwZhl41JEXbKqHE-151" value="" style="line;strokeWidth=1;fillColor=#f8cecc;align=left;verticalAlign=middle;spacingTop=-1;spacingLeft=3;spacingRight=3;rotatable=0;labelPosition=right;points=[];portConstraint=eastwest;strokeColor=#b85450;rounded=1;container=0;" vertex="1" parent="hgtmdTwZhl41JEXbKqHE-174">
          <mxGeometry x="0.05239285714287689" y="66" width="219.99760714285713" height="8" as="geometry" />
        </mxCell>
        <mxCell id="hgtmdTwZhl41JEXbKqHE-153" value="BulletParticle" style="swimlane;fontStyle=1;align=center;verticalAlign=top;childLayout=stackLayout;horizontal=1;startSize=26;horizontalStack=0;resizeParent=1;resizeParentMax=0;resizeLast=0;collapsible=1;marginBottom=0;whiteSpace=wrap;html=1;rounded=1;fillColor=#f8cecc;strokeColor=#b85450;container=0;" vertex="1" parent="hgtmdTwZhl41JEXbKqHE-174">
          <mxGeometry x="0.049999999999954525" y="230" width="200" height="100" as="geometry" />
        </mxCell>
        <mxCell id="hgtmdTwZhl41JEXbKqHE-154" value="- particles : ParticleSystem&lt;br&gt;- module : MainModule" style="text;strokeColor=none;fillColor=none;align=left;verticalAlign=top;spacingLeft=4;spacingRight=4;overflow=hidden;rotatable=0;points=[[0,0.5],[1,0.5]];portConstraint=eastwest;whiteSpace=wrap;html=1;rounded=1;container=0;" vertex="1" parent="hgtmdTwZhl41JEXbKqHE-174">
          <mxGeometry x="0.049999999999954525" y="256" width="200" height="34" as="geometry" />
        </mxCell>
        <mxCell id="hgtmdTwZhl41JEXbKqHE-157" style="edgeStyle=orthogonalEdgeStyle;rounded=1;orthogonalLoop=1;jettySize=auto;html=1;exitX=0;exitY=0.5;exitDx=0;exitDy=0;entryX=0;entryY=0.5;entryDx=0;entryDy=0;endArrow=block;endFill=1;startArrow=diamond;startFill=0;" edge="1" parent="hgtmdTwZhl41JEXbKqHE-174" source="hgtmdTwZhl41JEXbKqHE-142" target="hgtmdTwZhl41JEXbKqHE-154">
          <mxGeometry relative="1" as="geometry" />
        </mxCell>
        <mxCell id="hgtmdTwZhl41JEXbKqHE-155" value="" style="line;strokeWidth=1;fillColor=none;align=left;verticalAlign=middle;spacingTop=-1;spacingLeft=3;spacingRight=3;rotatable=0;labelPosition=right;points=[];portConstraint=eastwest;strokeColor=inherit;rounded=1;container=0;" vertex="1" parent="hgtmdTwZhl41JEXbKqHE-174">
          <mxGeometry x="0.049999999999954525" y="290" width="200" height="8" as="geometry" />
        </mxCell>
        <mxCell id="hgtmdTwZhl41JEXbKqHE-156" value="- OnParticleSystemStopped() : void" style="text;strokeColor=none;fillColor=none;align=left;verticalAlign=top;spacingLeft=4;spacingRight=4;overflow=hidden;rotatable=0;points=[[0,0.5],[1,0.5]];portConstraint=eastwest;whiteSpace=wrap;html=1;rounded=1;container=0;" vertex="1" parent="hgtmdTwZhl41JEXbKqHE-174">
          <mxGeometry x="0.049999999999954525" y="298" width="200" height="32" as="geometry" />
        </mxCell>
        <mxCell id="hgtmdTwZhl41JEXbKqHE-200" value="&lt;b&gt;&lt;u&gt;EVT&lt;/u&gt;&lt;/b&gt;" style="rounded=1;whiteSpace=wrap;html=1;fillColor=#dae8fc;strokeColor=#6c8ebf;direction=south;verticalAlign=middle;horizontal=0;" vertex="1" parent="hgtmdTwZhl41JEXbKqHE-174">
          <mxGeometry x="144" y="150" width="20" height="40" as="geometry" />
        </mxCell>
        <mxCell id="hgtmdTwZhl41JEXbKqHE-183" value="&lt;u&gt;InputManager&lt;/u&gt; - &lt;i&gt;STC&lt;/i&gt;" style="swimlane;fontStyle=1;align=center;verticalAlign=top;childLayout=stackLayout;horizontal=1;startSize=26;horizontalStack=0;resizeParent=1;resizeParentMax=0;resizeLast=0;collapsible=1;marginBottom=0;whiteSpace=wrap;html=1;rounded=1;fillColor=#d5e8d4;strokeColor=#82b366;" vertex="1" parent="hgtmdTwZhl41JEXbKqHE-218">
          <mxGeometry y="391" width="230" height="180" as="geometry" />
        </mxCell>
        <mxCell id="hgtmdTwZhl41JEXbKqHE-184" value="- _inputActions : PlayerInputActions&lt;br&gt;- _isInit : bool&lt;br&gt;+ Player : PlayerActions&lt;br&gt;+ MousePosition : V2" style="text;strokeColor=none;fillColor=none;align=left;verticalAlign=top;spacingLeft=4;spacingRight=4;overflow=hidden;rotatable=0;points=[[0,0.5],[1,0.5]];portConstraint=eastwest;whiteSpace=wrap;html=1;rounded=1;" vertex="1" parent="hgtmdTwZhl41JEXbKqHE-183">
          <mxGeometry y="26" width="230" height="64" as="geometry" />
        </mxCell>
        <mxCell id="hgtmdTwZhl41JEXbKqHE-185" value="" style="line;strokeWidth=1;fillColor=none;align=left;verticalAlign=middle;spacingTop=-1;spacingLeft=3;spacingRight=3;rotatable=0;labelPosition=right;points=[];portConstraint=eastwest;strokeColor=inherit;rounded=1;" vertex="1" parent="hgtmdTwZhl41JEXbKqHE-183">
          <mxGeometry y="90" width="230" height="8" as="geometry" />
        </mxCell>
        <mxCell id="hgtmdTwZhl41JEXbKqHE-186" value="- Init() : void&lt;br&gt;+ToggleInput(bool) : void&lt;br&gt;+ToggleShoot(bool) : void&lt;br&gt;+ToggleReload(bool) : void&lt;br&gt;+ToggleCover(bool) : void" style="text;strokeColor=none;fillColor=none;align=left;verticalAlign=top;spacingLeft=4;spacingRight=4;overflow=hidden;rotatable=0;points=[[0,0.5],[1,0.5]];portConstraint=eastwest;whiteSpace=wrap;html=1;rounded=1;" vertex="1" parent="hgtmdTwZhl41JEXbKqHE-183">
          <mxGeometry y="98" width="230" height="82" as="geometry" />
        </mxCell>
        <mxCell id="hgtmdTwZhl41JEXbKqHE-220" value="" style="group" vertex="1" connectable="0" parent="1">
          <mxGeometry x="401" y="680" width="324" height="245" as="geometry" />
        </mxCell>
        <mxCell id="hgtmdTwZhl41JEXbKqHE-60" value="" style="group" vertex="1" connectable="0" parent="hgtmdTwZhl41JEXbKqHE-220">
          <mxGeometry width="300" height="245" as="geometry" />
        </mxCell>
        <mxCell id="hgtmdTwZhl41JEXbKqHE-45" value="Behaviour - ABS" style="swimlane;fontStyle=1;align=center;verticalAlign=top;childLayout=stackLayout;horizontal=1;startSize=26;horizontalStack=0;resizeParent=1;resizeParentMax=0;resizeLast=0;collapsible=1;marginBottom=0;whiteSpace=wrap;html=1;rounded=1;" vertex="1" parent="hgtmdTwZhl41JEXbKqHE-60">
          <mxGeometry x="90" width="120" height="90" as="geometry" />
        </mxCell>
        <mxCell id="hgtmdTwZhl41JEXbKqHE-46" value="+ &lt;u&gt;IsEnabled&lt;/u&gt; : bool" style="text;strokeColor=none;fillColor=none;align=left;verticalAlign=top;spacingLeft=4;spacingRight=4;overflow=hidden;rotatable=0;points=[[0,0.5],[1,0.5]];portConstraint=eastwest;whiteSpace=wrap;html=1;rounded=1;" vertex="1" parent="hgtmdTwZhl41JEXbKqHE-45">
          <mxGeometry y="26" width="120" height="26" as="geometry" />
        </mxCell>
        <mxCell id="hgtmdTwZhl41JEXbKqHE-47" value="" style="line;strokeWidth=1;fillColor=none;align=left;verticalAlign=middle;spacingTop=-1;spacingLeft=3;spacingRight=3;rotatable=0;labelPosition=right;points=[];portConstraint=eastwest;strokeColor=inherit;rounded=1;" vertex="1" parent="hgtmdTwZhl41JEXbKqHE-45">
          <mxGeometry y="52" width="120" height="8" as="geometry" />
        </mxCell>
        <mxCell id="hgtmdTwZhl41JEXbKqHE-48" value="+ &lt;u&gt;Tick(Entity)&lt;/u&gt; : void" style="text;strokeColor=none;fillColor=none;align=left;verticalAlign=top;spacingLeft=4;spacingRight=4;overflow=hidden;rotatable=0;points=[[0,0.5],[1,0.5]];portConstraint=eastwest;whiteSpace=wrap;html=1;rounded=1;" vertex="1" parent="hgtmdTwZhl41JEXbKqHE-45">
          <mxGeometry y="60" width="120" height="30" as="geometry" />
        </mxCell>
        <mxCell id="hgtmdTwZhl41JEXbKqHE-57" style="edgeStyle=orthogonalEdgeStyle;orthogonalLoop=1;jettySize=auto;html=1;exitX=0.5;exitY=0;exitDx=0;exitDy=0;entryX=0.504;entryY=1.004;entryDx=0;entryDy=0;entryPerimeter=0;endArrow=block;endFill=0;rounded=1;" edge="1" parent="hgtmdTwZhl41JEXbKqHE-60" source="hgtmdTwZhl41JEXbKqHE-49" target="hgtmdTwZhl41JEXbKqHE-48">
          <mxGeometry relative="1" as="geometry" />
        </mxCell>
        <mxCell id="hgtmdTwZhl41JEXbKqHE-49" value="Movement" style="swimlane;fontStyle=1;align=center;verticalAlign=top;childLayout=stackLayout;horizontal=1;startSize=26;horizontalStack=0;resizeParent=1;resizeParentMax=0;resizeLast=0;collapsible=1;marginBottom=0;whiteSpace=wrap;html=1;rounded=1;" vertex="1" parent="hgtmdTwZhl41JEXbKqHE-60">
          <mxGeometry y="130" width="130" height="120" as="geometry" />
        </mxCell>
        <mxCell id="hgtmdTwZhl41JEXbKqHE-50" value="+ &lt;u&gt;IsEnabled&lt;/u&gt; : bool&lt;br&gt;- walker : PathWalker" style="text;strokeColor=none;fillColor=none;align=left;verticalAlign=middle;spacingLeft=4;spacingRight=4;overflow=hidden;rotatable=0;points=[[0,0.5],[1,0.5]];portConstraint=eastwest;whiteSpace=wrap;html=1;rounded=1;" vertex="1" parent="hgtmdTwZhl41JEXbKqHE-49">
          <mxGeometry y="26" width="130" height="44" as="geometry" />
        </mxCell>
        <mxCell id="hgtmdTwZhl41JEXbKqHE-51" value="" style="line;strokeWidth=1;fillColor=none;align=left;verticalAlign=middle;spacingTop=-1;spacingLeft=3;spacingRight=3;rotatable=0;labelPosition=right;points=[];portConstraint=eastwest;strokeColor=inherit;rounded=1;" vertex="1" parent="hgtmdTwZhl41JEXbKqHE-49">
          <mxGeometry y="70" width="130" height="8" as="geometry" />
        </mxCell>
        <mxCell id="hgtmdTwZhl41JEXbKqHE-52" value="+ &lt;u&gt;Tick(Entity)&lt;/u&gt; : void" style="text;strokeColor=none;fillColor=none;align=left;verticalAlign=middle;spacingLeft=4;spacingRight=4;overflow=hidden;rotatable=0;points=[[0,0.5],[1,0.5]];portConstraint=eastwest;whiteSpace=wrap;html=1;rounded=1;" vertex="1" parent="hgtmdTwZhl41JEXbKqHE-49">
          <mxGeometry y="78" width="130" height="42" as="geometry" />
        </mxCell>
        <mxCell id="hgtmdTwZhl41JEXbKqHE-58" style="edgeStyle=orthogonalEdgeStyle;orthogonalLoop=1;jettySize=auto;html=1;exitX=0.478;exitY=0.006;exitDx=0;exitDy=0;entryX=0.506;entryY=1.004;entryDx=0;entryDy=0;entryPerimeter=0;endArrow=block;endFill=0;exitPerimeter=0;rounded=1;" edge="1" parent="hgtmdTwZhl41JEXbKqHE-60" source="hgtmdTwZhl41JEXbKqHE-53" target="hgtmdTwZhl41JEXbKqHE-48">
          <mxGeometry relative="1" as="geometry" />
        </mxCell>
        <mxCell id="hgtmdTwZhl41JEXbKqHE-53" value="Shooting" style="swimlane;fontStyle=1;align=center;verticalAlign=top;childLayout=stackLayout;horizontal=1;startSize=26;horizontalStack=0;resizeParent=1;resizeParentMax=0;resizeLast=0;collapsible=1;marginBottom=0;whiteSpace=wrap;html=1;rounded=1;" vertex="1" parent="hgtmdTwZhl41JEXbKqHE-60">
          <mxGeometry x="170" y="130" width="130" height="115" as="geometry" />
        </mxCell>
        <mxCell id="hgtmdTwZhl41JEXbKqHE-54" value="- muzzle : Transform&lt;br&gt;- minFireRate : float&lt;br&gt;- maxFireRate : float&lt;br&gt;" style="text;strokeColor=none;fillColor=none;align=left;verticalAlign=top;spacingLeft=4;spacingRight=4;overflow=hidden;rotatable=0;points=[[0,0.5],[1,0.5]];portConstraint=eastwest;whiteSpace=wrap;html=1;rounded=1;" vertex="1" parent="hgtmdTwZhl41JEXbKqHE-53">
          <mxGeometry y="26" width="130" height="51" as="geometry" />
        </mxCell>
        <mxCell id="hgtmdTwZhl41JEXbKqHE-55" value="" style="line;strokeWidth=1;fillColor=none;align=left;verticalAlign=middle;spacingTop=-1;spacingLeft=3;spacingRight=3;rotatable=0;labelPosition=right;points=[];portConstraint=eastwest;strokeColor=inherit;rounded=1;" vertex="1" parent="hgtmdTwZhl41JEXbKqHE-53">
          <mxGeometry y="77" width="130" height="8" as="geometry" />
        </mxCell>
        <mxCell id="hgtmdTwZhl41JEXbKqHE-56" value="+ &lt;u&gt;Tick(Entity)&lt;/u&gt; : void" style="text;strokeColor=none;fillColor=none;align=left;verticalAlign=top;spacingLeft=4;spacingRight=4;overflow=hidden;rotatable=0;points=[[0,0.5],[1,0.5]];portConstraint=eastwest;whiteSpace=wrap;html=1;rounded=1;" vertex="1" parent="hgtmdTwZhl41JEXbKqHE-53">
          <mxGeometry y="85" width="130" height="30" as="geometry" />
        </mxCell>
        <mxCell id="hgtmdTwZhl41JEXbKqHE-206" value="&lt;b&gt;&lt;u&gt;EVT&lt;/u&gt;&lt;/b&gt;" style="rounded=1;whiteSpace=wrap;html=1;fillColor=#dae8fc;strokeColor=#6c8ebf;direction=south;verticalAlign=middle;horizontal=0;" vertex="1" parent="hgtmdTwZhl41JEXbKqHE-220">
          <mxGeometry x="304" y="130" width="20" height="40" as="geometry" />
        </mxCell>
        <mxCell id="hgtmdTwZhl41JEXbKqHE-205" value="&lt;b&gt;&lt;u&gt;EVT&lt;/u&gt;&lt;/b&gt;" style="rounded=1;whiteSpace=wrap;html=1;fillColor=#dae8fc;strokeColor=#6c8ebf;direction=south;verticalAlign=middle;horizontal=0;" vertex="1" parent="1">
          <mxGeometry x="437" y="600" width="20" height="40" as="geometry" />
        </mxCell>
        <mxCell id="hgtmdTwZhl41JEXbKqHE-223" value="PlayfabManager - &lt;i&gt;STC&lt;/i&gt;" style="swimlane;fontStyle=1;align=center;verticalAlign=top;childLayout=stackLayout;horizontal=1;startSize=26;horizontalStack=0;resizeParent=1;resizeParentMax=0;resizeLast=0;collapsible=1;marginBottom=0;whiteSpace=wrap;html=1;rounded=1;fillColor=#d5e8d4;strokeColor=#82b366;" vertex="1" parent="1">
          <mxGeometry x="1200" y="370" width="210" height="180" as="geometry" />
        </mxCell>
        <mxCell id="hgtmdTwZhl41JEXbKqHE-226" value="+ Login() : void&lt;br&gt;+ SetUsername(string) : void&lt;br&gt;+ SendLeaderboard(int) : void&lt;br&gt;+ GetLeaderboard() : void&lt;br&gt;&lt;br&gt;- OnUsernameSuccess(...) : void&lt;br&gt;- OnError(PFError) : void&lt;br&gt;- OnSuccess(LoginResult) : void&lt;br&gt;- OnLeaderboardUpdate(...) : void&lt;br&gt;- OnLeaderboardUpdate(...) : void" style="text;strokeColor=none;fillColor=none;align=left;verticalAlign=top;spacingLeft=4;spacingRight=4;overflow=hidden;rotatable=0;points=[[0,0.5],[1,0.5]];portConstraint=eastwest;whiteSpace=wrap;html=1;rounded=1;" vertex="1" parent="hgtmdTwZhl41JEXbKqHE-223">
          <mxGeometry y="26" width="210" height="154" as="geometry" />
        </mxCell>
        <mxCell id="hgtmdTwZhl41JEXbKqHE-244" value="&lt;b&gt;&lt;u&gt;EVT&lt;/u&gt;&lt;/b&gt;" style="rounded=1;whiteSpace=wrap;html=1;fillColor=#dae8fc;strokeColor=#6c8ebf;direction=south;verticalAlign=middle;horizontal=0;" vertex="1" parent="1">
          <mxGeometry x="1413" y="370" width="20" height="40" as="geometry" />
        </mxCell>
        <mxCell id="hgtmdTwZhl41JEXbKqHE-246" value="" style="group" vertex="1" connectable="0" parent="1">
          <mxGeometry x="1178.5" y="572" width="253" height="245" as="geometry" />
        </mxCell>
        <mxCell id="hgtmdTwZhl41JEXbKqHE-228" value="&lt;u&gt;LeaderboardManager&lt;/u&gt;" style="swimlane;fontStyle=1;align=center;verticalAlign=top;childLayout=stackLayout;horizontal=1;startSize=26;horizontalStack=0;resizeParent=1;resizeParentMax=0;resizeLast=0;collapsible=1;marginBottom=0;whiteSpace=wrap;html=1;rounded=1;fillColor=#d5e8d4;strokeColor=#82b366;" vertex="1" parent="hgtmdTwZhl41JEXbKqHE-246">
          <mxGeometry y="50" width="230" height="80" as="geometry" />
        </mxCell>
        <mxCell id="hgtmdTwZhl41JEXbKqHE-231" value="- OnLogin(string) : void&lt;br&gt;- Init(List&amp;lt;LeaderboardEntry&amp;gt;) : void&lt;br&gt;- UpdateLeaderboard(string) : void" style="text;strokeColor=none;fillColor=none;align=left;verticalAlign=top;spacingLeft=4;spacingRight=4;overflow=hidden;rotatable=0;points=[[0,0.5],[1,0.5]];portConstraint=eastwest;whiteSpace=wrap;html=1;rounded=1;" vertex="1" parent="hgtmdTwZhl41JEXbKqHE-228">
          <mxGeometry y="26" width="230" height="54" as="geometry" />
        </mxCell>
        <mxCell id="hgtmdTwZhl41JEXbKqHE-232" value="&lt;b&gt;ObjectPooler - ABS&lt;/b&gt;" style="rounded=1;whiteSpace=wrap;html=1;fillColor=#f8cecc;strokeColor=#b85450;" vertex="1" parent="hgtmdTwZhl41JEXbKqHE-246">
          <mxGeometry x="55" width="120" height="30" as="geometry" />
        </mxCell>
        <mxCell id="hgtmdTwZhl41JEXbKqHE-233" style="edgeStyle=orthogonalEdgeStyle;rounded=1;orthogonalLoop=1;jettySize=auto;html=1;exitX=0.5;exitY=0;exitDx=0;exitDy=0;entryX=0.5;entryY=1;entryDx=0;entryDy=0;endArrow=block;endFill=0;" edge="1" parent="hgtmdTwZhl41JEXbKqHE-246" source="hgtmdTwZhl41JEXbKqHE-228" target="hgtmdTwZhl41JEXbKqHE-232">
          <mxGeometry relative="1" as="geometry" />
        </mxCell>
        <mxCell id="hgtmdTwZhl41JEXbKqHE-234" value="LeaderboardEntryUI" style="swimlane;fontStyle=1;align=center;verticalAlign=top;childLayout=stackLayout;horizontal=1;startSize=26;horizontalStack=0;resizeParent=1;resizeParentMax=0;resizeLast=0;collapsible=1;marginBottom=0;whiteSpace=wrap;html=1;rounded=1;fillColor=#f8cecc;strokeColor=#b85450;" vertex="1" parent="hgtmdTwZhl41JEXbKqHE-246">
          <mxGeometry x="20" y="145" width="190" height="100" as="geometry" />
        </mxCell>
        <mxCell id="hgtmdTwZhl41JEXbKqHE-235" value="- name : TMP_Text&lt;br&gt;- score : TMP_Text" style="text;strokeColor=none;fillColor=none;align=left;verticalAlign=top;spacingLeft=4;spacingRight=4;overflow=hidden;rotatable=0;points=[[0,0.5],[1,0.5]];portConstraint=eastwest;whiteSpace=wrap;html=1;rounded=1;" vertex="1" parent="hgtmdTwZhl41JEXbKqHE-234">
          <mxGeometry y="26" width="190" height="34" as="geometry" />
        </mxCell>
        <mxCell id="hgtmdTwZhl41JEXbKqHE-236" value="" style="line;strokeWidth=1;fillColor=none;align=left;verticalAlign=middle;spacingTop=-1;spacingLeft=3;spacingRight=3;rotatable=0;labelPosition=right;points=[];portConstraint=eastwest;strokeColor=inherit;rounded=1;" vertex="1" parent="hgtmdTwZhl41JEXbKqHE-234">
          <mxGeometry y="60" width="190" height="8" as="geometry" />
        </mxCell>
        <mxCell id="hgtmdTwZhl41JEXbKqHE-237" value="+ Init(string, string)" style="text;strokeColor=none;fillColor=none;align=left;verticalAlign=top;spacingLeft=4;spacingRight=4;overflow=hidden;rotatable=0;points=[[0,0.5],[1,0.5]];portConstraint=eastwest;whiteSpace=wrap;html=1;rounded=1;" vertex="1" parent="hgtmdTwZhl41JEXbKqHE-234">
          <mxGeometry y="68" width="190" height="32" as="geometry" />
        </mxCell>
        <mxCell id="hgtmdTwZhl41JEXbKqHE-242" style="edgeStyle=orthogonalEdgeStyle;rounded=1;orthogonalLoop=1;jettySize=auto;html=1;exitX=1;exitY=0.5;exitDx=0;exitDy=0;entryX=1;entryY=0.5;entryDx=0;entryDy=0;startArrow=diamond;startFill=0;endArrow=block;endFill=1;" edge="1" parent="hgtmdTwZhl41JEXbKqHE-246" source="hgtmdTwZhl41JEXbKqHE-231" target="hgtmdTwZhl41JEXbKqHE-235">
          <mxGeometry relative="1" as="geometry" />
        </mxCell>
        <mxCell id="hgtmdTwZhl41JEXbKqHE-243" value="&lt;b&gt;&lt;u&gt;EVT&lt;/u&gt;&lt;/b&gt;" style="rounded=1;whiteSpace=wrap;html=1;fillColor=#dae8fc;strokeColor=#6c8ebf;direction=south;verticalAlign=middle;horizontal=0;" vertex="1" parent="hgtmdTwZhl41JEXbKqHE-246">
          <mxGeometry x="233" y="50" width="20" height="40" as="geometry" />
        </mxCell>
        <mxCell id="hgtmdTwZhl41JEXbKqHE-247" value="" style="group" vertex="1" connectable="0" parent="1">
          <mxGeometry x="460" y="131" width="380" height="140" as="geometry" />
        </mxCell>
        <mxCell id="hgtmdTwZhl41JEXbKqHE-114" value="" style="group" vertex="1" connectable="0" parent="hgtmdTwZhl41JEXbKqHE-247">
          <mxGeometry width="160" height="140" as="geometry" />
        </mxCell>
        <mxCell id="hgtmdTwZhl41JEXbKqHE-34" value="&lt;span style=&quot;font-weight: normal;&quot;&gt;&amp;lt;&amp;lt;IDamageable&amp;gt;&amp;gt;&lt;/span&gt;" style="swimlane;fontStyle=1;align=center;verticalAlign=top;childLayout=stackLayout;horizontal=1;startSize=26;horizontalStack=0;resizeParent=1;resizeParentMax=0;resizeLast=0;collapsible=1;marginBottom=0;whiteSpace=wrap;html=1;rounded=1;fillColor=#fff2cc;strokeColor=#d6b656;" vertex="1" parent="hgtmdTwZhl41JEXbKqHE-114">
          <mxGeometry y="30" width="160" height="110" as="geometry" />
        </mxCell>
        <mxCell id="hgtmdTwZhl41JEXbKqHE-35" value="+ Health : int&lt;br&gt;- Collider : CapsuleCollider" style="text;strokeColor=none;fillColor=none;align=left;verticalAlign=top;spacingLeft=4;spacingRight=4;overflow=hidden;rotatable=0;points=[[0,0.5],[1,0.5]];portConstraint=eastwest;whiteSpace=wrap;html=1;rounded=1;" vertex="1" parent="hgtmdTwZhl41JEXbKqHE-34">
          <mxGeometry y="26" width="160" height="34" as="geometry" />
        </mxCell>
        <mxCell id="hgtmdTwZhl41JEXbKqHE-36" value="" style="line;strokeWidth=1;fillColor=none;align=left;verticalAlign=middle;spacingTop=-1;spacingLeft=3;spacingRight=3;rotatable=0;labelPosition=right;points=[];portConstraint=eastwest;strokeColor=inherit;rounded=1;" vertex="1" parent="hgtmdTwZhl41JEXbKqHE-34">
          <mxGeometry y="60" width="160" height="8" as="geometry" />
        </mxCell>
        <mxCell id="hgtmdTwZhl41JEXbKqHE-37" value="+ TakeDamage(int) : void&lt;br&gt;# OnDeath() : void" style="text;strokeColor=none;fillColor=none;align=left;verticalAlign=top;spacingLeft=4;spacingRight=4;overflow=hidden;rotatable=0;points=[[0,0.5],[1,0.5]];portConstraint=eastwest;whiteSpace=wrap;html=1;rounded=1;" vertex="1" parent="hgtmdTwZhl41JEXbKqHE-34">
          <mxGeometry y="68" width="160" height="42" as="geometry" />
        </mxCell>
        <mxCell id="hgtmdTwZhl41JEXbKqHE-89" style="edgeStyle=orthogonalEdgeStyle;rounded=1;orthogonalLoop=1;jettySize=auto;html=1;exitX=1;exitY=0.5;exitDx=0;exitDy=0;entryX=0.861;entryY=0.008;entryDx=0;entryDy=0;entryPerimeter=0;endArrow=open;endFill=0;" edge="1" parent="hgtmdTwZhl41JEXbKqHE-114" source="hgtmdTwZhl41JEXbKqHE-88" target="hgtmdTwZhl41JEXbKqHE-34">
          <mxGeometry relative="1" as="geometry" />
        </mxCell>
        <mxCell id="hgtmdTwZhl41JEXbKqHE-88" value="&lt;b&gt;&lt;u&gt;IDamageable Editor&lt;/u&gt;&lt;/b&gt;" style="rounded=1;whiteSpace=wrap;html=1;fillColor=#fff2cc;strokeColor=#d6b656;" vertex="1" parent="hgtmdTwZhl41JEXbKqHE-114">
          <mxGeometry width="120" height="20" as="geometry" />
        </mxCell>
        <mxCell id="hgtmdTwZhl41JEXbKqHE-215" value="" style="group" vertex="1" connectable="0" parent="hgtmdTwZhl41JEXbKqHE-247">
          <mxGeometry x="220" y="30" width="160" height="84" as="geometry" />
        </mxCell>
        <mxCell id="hgtmdTwZhl41JEXbKqHE-182" value="&lt;b&gt;&lt;u&gt;EventManager&lt;/u&gt; - &lt;i&gt;STC&lt;/i&gt;&lt;/b&gt;" style="rounded=1;whiteSpace=wrap;html=1;fillColor=#dae8fc;strokeColor=#6c8ebf;" vertex="1" parent="hgtmdTwZhl41JEXbKqHE-215">
          <mxGeometry width="160" height="40" as="geometry" />
        </mxCell>
        <mxCell id="hgtmdTwZhl41JEXbKqHE-212" value="" style="group;fillColor=none;strokeColor=none;" vertex="1" connectable="0" parent="hgtmdTwZhl41JEXbKqHE-215">
          <mxGeometry y="60" width="55" height="24" as="geometry" />
        </mxCell>
        <mxCell id="hgtmdTwZhl41JEXbKqHE-209" value="&lt;b&gt;&lt;u&gt;EVT&lt;/u&gt;&lt;/b&gt;" style="rounded=1;whiteSpace=wrap;html=1;fillColor=#dae8fc;strokeColor=#6c8ebf;" vertex="1" parent="hgtmdTwZhl41JEXbKqHE-212">
          <mxGeometry width="50" height="20" as="geometry" />
        </mxCell>
        <mxCell id="hgtmdTwZhl41JEXbKqHE-210" value="&lt;b&gt;&lt;u&gt;EVT&lt;/u&gt;&lt;/b&gt;" style="rounded=1;whiteSpace=wrap;html=1;fillColor=#dae8fc;strokeColor=#6c8ebf;" vertex="1" parent="hgtmdTwZhl41JEXbKqHE-212">
          <mxGeometry x="2" y="2" width="50" height="20" as="geometry" />
        </mxCell>
        <mxCell id="hgtmdTwZhl41JEXbKqHE-211" value="&lt;b&gt;&lt;u&gt;EVT&lt;/u&gt;&lt;/b&gt;" style="rounded=1;whiteSpace=wrap;html=1;fillColor=#dae8fc;strokeColor=#6c8ebf;" vertex="1" parent="hgtmdTwZhl41JEXbKqHE-212">
          <mxGeometry x="4" y="4" width="50" height="20" as="geometry" />
        </mxCell>
        <mxCell id="hgtmdTwZhl41JEXbKqHE-214" style="edgeStyle=orthogonalEdgeStyle;rounded=1;orthogonalLoop=1;jettySize=auto;html=1;exitX=0;exitY=0.5;exitDx=0;exitDy=0;entryX=0;entryY=0.5;entryDx=0;entryDy=0;endArrow=block;endFill=1;startArrow=diamond;startFill=0;" edge="1" parent="hgtmdTwZhl41JEXbKqHE-215" source="hgtmdTwZhl41JEXbKqHE-182" target="hgtmdTwZhl41JEXbKqHE-209">
          <mxGeometry relative="1" as="geometry" />
        </mxCell>
        <mxCell id="hgtmdTwZhl41JEXbKqHE-250" value="&lt;b&gt;&lt;u&gt;EVT&lt;/u&gt;&lt;/b&gt;" style="rounded=1;whiteSpace=wrap;html=1;fillColor=#dae8fc;strokeColor=#6c8ebf;direction=south;verticalAlign=middle;horizontal=0;" vertex="1" parent="1">
          <mxGeometry x="1413" y="1270" width="20" height="40" as="geometry" />
        </mxCell>
        <mxCell id="hgtmdTwZhl41JEXbKqHE-271" value="&lt;b&gt;PlayerPathWalker&lt;/b&gt;" style="rounded=1;whiteSpace=wrap;html=1;fillColor=#f8cecc;strokeColor=#b85450;" vertex="1" parent="1">
          <mxGeometry x="900" y="1470" width="120" height="40" as="geometry" />
        </mxCell>
        <mxCell id="hgtmdTwZhl41JEXbKqHE-272" style="edgeStyle=orthogonalEdgeStyle;rounded=1;orthogonalLoop=1;jettySize=auto;html=1;exitX=0;exitY=0.5;exitDx=0;exitDy=0;entryX=0;entryY=0.5;entryDx=0;entryDy=0;endArrow=block;endFill=1;" edge="1" parent="1" source="hgtmdTwZhl41JEXbKqHE-115" target="hgtmdTwZhl41JEXbKqHE-271">
          <mxGeometry relative="1" as="geometry" />
        </mxCell>
      </root>
    </mxGraphModel>
  </diagram>
</mxfile>
